SplineFontDB: 3.2
FontName: NotoSerifTagalog-Bold
FullName: Noto Serif Tagalog Bold
FamilyName: Noto Serif Tagalog
Weight: Bold
Copyright: Copyright (c) 2020, The Noto Tagalog Project Authors\n\nThis Font Software is licensed under the SIL Open Font License, Version 1.1.
Version: 3.0
ItalicAngle: 0
UnderlinePosition: -250
UnderlineWidth: 100
Ascent: 1600
Descent: 400
InvalidEm: 0
UFOAscent: 1600
UFODescent: -400
LayerCount: 2
Layer: 0 0 "Back" 1
Layer: 1 0 "Fore" 0 "glyphs"
StyleMap: 0x0020
FSType: 0
OS2Version: 0
OS2_WeightWidthSlopeOnly: 0
OS2_UseTypoMetrics: 0
CreationTime: 1596957163
ModificationTime: 1603102175
PfmFamily: 17
TTFWeight: 700
TTFWidth: 5
LineGap: 0
VLineGap: 0
Panose: 2 11 5 2 4 5 4 2 2 4
OS2TypoAscent: 2138
OS2TypoAOffset: 0
OS2TypoDescent: -586
OS2TypoDOffset: 0
OS2TypoLinegap: 0
OS2WinAscent: 2138
OS2WinAOffset: 0
OS2WinDescent: 586
OS2WinDOffset: 0
HheadAscent: 2138
HheadAOffset: 0
HheadDescent: -586
HheadDOffset: 0
OS2SubXSize: 1300
OS2SubYSize: 1200
OS2SubXOff: 0
OS2SubYOff: 150
OS2SupXSize: 1300
OS2SupYSize: 1200
OS2SupXOff: 0
OS2SupYOff: 700
OS2StrikeYSize: 100
OS2StrikeYPos: 644
OS2CapHeight: 1428
OS2XHeight: 1072
OS2FamilyClass: 768
OS2Vendor: 'GOOG'
OS2CodePages: 00000001.00000000
OS2UnicodeRanges: 80000003.00002000.00100000.00000000
Lookup: 258 0 0 "OldRaKern" { "OldRaKern-1" [300,0,2] } ['kern' ('DFLT' <'dflt' > 'hano' <'dflt' > 'tagl' <'TGL ' 'dflt' > ) ]
Lookup: 258 0 0 "PamudpodKern" { "PamudpodKern-1" [150,0,2] } ['kern' ('DFLT' <'dflt' > 'hano' <'dflt' > 'tagl' <'TGL ' 'dflt' > ) ]
Lookup: 260 0 0 "markMarkPositioninginTagaloglookup0" { "markMarkPositioninginTagaloglookup0 subtable"  } ['mark' ('DFLT' <'dflt' > 'hano' <'dflt' > 'tagl' <'dflt' > 'tagl' <'TGL ' > ) ]
Lookup: 260 0 0 "markMarkPositioninginTagaloglookup1" { "markMarkPositioninginTagaloglookup1 subtable"  } ['mark' ('DFLT' <'dflt' > 'hano' <'dflt' > 'tagl' <'dflt' > 'tagl' <'TGL ' > ) ]

StartChar: .notdef
Encoding: 0 0 0
GlifName: _notdef
Width: 1200
VWidth: 0
Flags: HMW
LayerCount: 2
Fore
SplineSet
188 0 m 257
 188 1428 l 257
 1010 1428 l 257
 1010 0 l 257
 188 0 l 257
290 102 m 257
 908 102 l 257
 908 1326 l 257
 290 1326 l 257
 290 102 l 257
EndSplineSet
EndChar

StartChar: uni1700
Encoding: 5888 5888 4
GlifName: uni1700
Width: 2023
VWidth: 0
GlyphClass: 2
Flags: HMW
LayerCount: 2
Back
SplineSet
168 816 m 5
 516 816 l 1029
168 1106 m 5
 908 1106 l 1029
194 1490 m 4
 301.659179688 1474.04003906 388.59765625 1420.75195312 454.814453125 1330.13769531 c 4
 458.205078125 1325.49804688 461.93359375 1320.11816406 466 1314 c 4
 518.24609375 1234.42871094 544.5390625 1136.37792969 544.879882812 1019.84960938 c 4
 544.879882812 1008.64550781 544.586914062 996.696289062 544 984 c 4
 540.6875 915.984375 518.8046875 799.573242188 478.352539062 634.766601562 c 4
 474.5390625 619.228515625 471.036132812 604.666015625 467.84375 591.078125 c 4
 449.51953125 512.853515625 439.23828125 446.934570312 436.999023438 393.323242188 c 4
 436.729492188 386.338867188 436.581054688 378.778320312 436.5546875 370.640625 c 4
 436.5546875 304.787109375 448.370117188 247.240234375 472 198 c 4
 487.283203125 166.705078125 507.508789062 139.9375 532.676757812 117.69921875 c 4
 558.489257812 95.4013671875 588.263671875 80.16796875 622 72 c 4
 636.279296875 68.712890625 651.700195312 66.99609375 668.263671875 66.849609375 c 4
 695.258789062 66.849609375 722.783203125 71.8681640625 750.836914062 81.90625 c 4
 787.1796875 95.2314453125 824.233398438 117.928710938 862 150 c 4
 918.359375 198.28515625 980.359375 276.28515625 1048 384 c 6
 1270 738 l 6
 1282.15039062 757.374023438 1300.00195312 786.69140625 1323.55664062 825.951171875 c 4
 1377.43945312 915.76171875 1420.55957031 982.22265625 1452.91699219 1025.33300781 c 4
 1491.10644531 1075.99414062 1531.19335938 1115.85546875 1573.17773438 1144.91699219 c 4
 1623.50878906 1179.20898438 1676.44921875 1197.5703125 1732 1200 c 4
 1734.92773438 1200.10351562 1737.85742188 1200.15527344 1740.7890625 1200.15527344 c 4
 1789.4921875 1200.15527344 1834.20507812 1186.98925781 1874.92675781 1160.65625 c 4
 1917.64550781 1132.46972656 1948.00292969 1093.58496094 1966 1044 c 1028
EndSplineSet
Fore
SplineSet
64.2333984375 616 m 1
 181.765625 814.708007812 l 1
 569.765625 814.708007812 l 1
 452.233398438 616 l 1
 64.2333984375 616 l 1
104.233805032 1006.64607966 m 1
 221.766194968 1205.35392034 l 1
 961.766194968 1205.35392034 l 1
 844.233805032 1006.64607966 l 1
 104.233805032 1006.64607966 l 1
253.4414595 1588.95183123 m 1
 489.893006653 1553.89901487 627.488720654 1350.56545896 628.262678952 1085.94490302 c 0
 628.262678952 970.224271988 605.415830786 869.579976118 559.034453937 680.616986481 c 0
 538.189818367 595.685105153 520.153542175 503.417982896 519.93748364 436.735918638 c 0
 519.93748364 305.517413146 574.021085856 197.097038295 683.992706229 170.471593014 c 0
 695.740978024 167.767129062 708.461060787 166.20360438 722.222590994 166.20360438 c 0
 829 166.20360438 917.031290981 288.761282997 980.213895003 389.376916275 c 0
 1000.83878821 422.265259487 1021.37130516 455.138495136 1041.85387481 488 c 2
 1211.89062275 761 l 2
 1251.74348106 824.710019488 1291.85115631 888.411098181 1332.52394284 952.12793136 c 0
 1426.469654 1099.30061655 1561.19963747 1299.50919378 1794.55525747 1299.50919378 c 0
 1923.07981135 1299.50919378 2012.04416331 1221.70140946 2046.96324778 1125.49344842 c 1
 1875.03675222 962.506551579 l 1
 1848.1975526 1036.45306854 1773.95537248 1100.8013531 1677.02286753 1100.8013531 c 0
 1578.9276647 1100.8013531 1539.64311147 1056.7284041 1498.4615519 1002.17363312 c 0
 1445.61705522 930.630397135 1378.32196425 813.203449474 1327.78333889 732.618673004 c 2
 1105.786105 378.623083725 l 2
 1034.33551676 264.841034132 963.216172962 165.757525807 867.744867619 84.3238676452 c 0
 805.323171716 31.3155436174 717.743603185 -32.5043109605 604.497476907 -32.5043109605 c 2
 604.115016515 -32.5043109605 l 2
 536.906463926 -31.9099307421 489.101374256 -9.18386029554 450.623824954 23.1026371318 c 0
 379.195771542 83.0378904061 343.17189136 183.870048485 343.17189136 304.545331362 c 0
 343.455905594 392.200537743 365.16590399 497.220287555 387.670624187 588.916216643 c 0
 434.482537146 779.63325922 451.497086672 855.868140974 451.497086672 953.754315742 c 0
 450.840139712 1178.36805801 329.147358561 1360.71885033 124.5585405 1391.04816877 c 1
 253.4414595 1588.95183123 l 1
EndSplineSet
EndChar

StartChar: uni1701
Encoding: 5889 5889 5
GlifName: uni1701
Width: 2022
VWidth: 0
GlyphClass: 2
Flags: HMW
LayerCount: 2
Back
SplineSet
94 274 m 4
 172.155273438 235.278320312 254.212890625 217.85546875 340.173828125 221.73046875 c 4
 427.263671875 226.729492188 507.206054688 252.15234375 580 298 c 4
 651.756835938 344.692382812 707.891601562 404.84765625 748.404296875 478.466796875 c 4
 788.583007812 553.888671875 808.44921875 633.733398438 808 718 c 5
 812.791015625 627.85546875 836.791015625 543.85546875 880 466 c 4
 903.966796875 424.025390625 931.966796875 386.025390625 964 352 c 5
 1020.74023438 390.142578125 1068.74023438 436.142578125 1108 490 c 4
 1157.29296875 559.4375 1189.29296875 635.4375 1204 718 c 5
 1202.79882812 615.637695312 1226.79882812 521.637695312 1276 436 c 4
 1315.56152344 369.471679688 1364.828125 317.140625 1423.79980469 279.006835938 c 4
 1489.38574219 238.163085938 1558.11914062 218.494140625 1630 220 c 4
 1704.65429688 222.908203125 1770.65429688 246.908203125 1828 292 c 1028
106 1084 m 4
 218.098632812 983.047851562 352.098632812 927.047851562 508 916 c 4
 624.853515625 908.100585938 782.081054688 935.5234375 979.682617188 998.26953125 c 4
 986.47265625 1000.42871094 992.974609375 1002.50292969 999.188476562 1004.49023438 c 4
 1191.60742188 1066.09472656 1340.92773438 1096.984375 1447.1484375 1097.16015625 c 4
 1462.26953125 1097.109375 1476.55371094 1096.72265625 1490 1096 c 4
 1656.81738281 1085.59667969 1797.48339844 1025.59667969 1912 916 c 1028
EndSplineSet
Fore
SplineSet
778.086316295 410.813523913 m 1
 672.0970451 265.995205794 478.449333565 127.097600081 257.65081827 127.097600081 c 0
 171.607962636 127.097600081 91.744762353 146.560789488 16.7648839236 183.709233961 c 1
 171.235116076 364.290766039 l 1
 238.350129749 331.038933664 307.028092706 315.305760174 375.969707327 315.305760174 c 0
 524.190404433 315.305760174 617.555518925 375.288832926 669.166954387 468.376483823 c 0
 695.922390758 518.998011765 713.906347802 582.132510385 713.906347802 656.216159428 c 0
 713.906347802 657.029960855 713.904177713 657.845083494 713.899825325 658.661525272 c 2
 902.025861228 779.912340444 l 1
 908.145920871 664.761409839 956.618596318 550.283798007 1018.32052535 472.294880981 c 1
 1063.77958702 521.150317846 1095.7016235 584.948087697 1111.02827923 670.98904271 c 1
 1298.09699992 776.361094998 l 1
 1295.99381549 597.130587622 1387.13339298 443.288129462 1503.79596288 367.746484232 c 0
 1563.05160854 330.89369874 1623.12904897 314.021724102 1681.47848056 314.021724102 c 0
 1746.94244641 314.021724102 1790.85834586 337.667097452 1809.13895203 352.041415583 c 1
 1846.86104797 231.958584417 l 1
 1748.43457612 154.564355481 1655.37613005 125.817606291 1563.20693448 125.817606291 c 0
 1348.68476933 125.817606291 1207.20314745 278.989004704 1146.21244892 443.006071053 c 1
 1096.54615735 382.239061231 1033.71183787 325.391686151 969.577001002 282.278222615 c 1
 878.558078237 267.754322115 l 1
 839.213551139 309.545737674 805.046504919 356.94136936 778.086316295 410.813523913 c 1
189.789463671 1169.86200362 m 1
 304.069262356 1066.94557269 438.758721057 1008.78466003 607.52077956 1008.78466003 c 0
 709.892503205 1008.78466003 845.062195909 1034.39388881 1014.24578205 1088.11618241 c 2
 1033.62984158 1094.29796604 l 2
 1231.64143895 1157.69299132 1389.20213298 1191.06690807 1506.37556088 1191.26081463 c 0
 1712.23220084 1190.56948518 1868.37603759 1123.81926467 1996.41243957 1001.28362926 c 1
 1827.58756043 830.716370736 l 1
 1709.81814113 943.426118779 1569.62954005 1002.44926616 1387.92131412 1003.05949787 c 0
 1292.65333578 1002.90184193 1151.57340481 974.496461801 964.747111548 914.682502718 c 2
 945.119452323 908.422880086 l 2
 763.280387912 850.681985537 611.13955022 820.565349272 489.90796264 820.565349272 c 0
 297.088731601 820.565349272 146.740537446 885.99058796 22.2105363294 998.137996384 c 1
 189.789463671 1169.86200362 l 1
EndSplineSet
EndChar

StartChar: uni1702
Encoding: 5890 5890 6
GlifName: uni1702
Width: 1070
VWidth: 0
GlyphClass: 2
Flags: HMW
LayerCount: 2
Back
SplineSet
252 1124 m 4
 387.857421875 1195.04296875 517.190429688 1221.04296875 640 1202 c 4
 709.822265625 1189.96875 765.426757812 1163.56347656 806.814453125 1122.78417969 c 4
 829.66796875 1098.88378906 846.443359375 1072.7578125 857.141601562 1044.40625 c 4
 867.623046875 1013.83984375 871.2421875 983.038085938 868 952 c 4
 863.713867188 919.828125 853.037109375 889.44140625 835.969726562 860.83984375 c 4
 818.870117188 833.842773438 797.546875 809.5625 772 788 c 4
 726.157226562 750.754882812 672.623046875 724.267578125 611.396484375 708.538085938 c 4
 566.458984375 697.565429688 506.66015625 692.052734375 432 692 c 6
 396 692 l 5
 492 692 l 6
 558.426757812 691.778320312 608.631835938 688.844726562 642.616210938 683.200195312 c 4
 696.908203125 673.364257812 743.692382812 655.736328125 782.966796875 630.31640625 c 4
 826.918945312 600.326171875 860.012695312 563.172851562 882.247070312 518.856445312 c 4
 904.380859375 471.923828125 912.965820312 422.971679688 908 372 c 4
 902.336914062 324.517578125 886.130859375 280.473632812 859.379882812 239.868164062 c 4
 832.594726562 201.141601562 798.834960938 168.33984375 758.100585938 141.46484375 c 4
 684.283203125 94.37890625 594.25 68.5576171875 488 64 c 4
 366.532226562 59.671875 243.866210938 81.0048828125 120 128 c 1028
EndSplineSet
Fore
SplineSet
812.209228559 746.23371866 m 1
 916.730815748 700.406554783 1003.48107785 604.575114981 1003.48107785 459.090280031 c 0
 1003.48107785 287.12502686 875.208242895 144.079650636 759.562022045 69.0472384895 c 0
 660.475403002 5.84279837617 547.993043299 -30.6518530395 398.034653569 -30.6518530395 c 4
 279.388134023 -30.6518530395 162.397820123 -7.84110880318 45.6462788018 36.4546868351 c 1
 194.353721198 219.545313165 l 1
 304.446733067 177.775778624 412.285477408 157.556812723 516.450812493 157.556812723 c 0
 632.193257491 157.556812723 743.471008165 180.890546197 789.808014781 245.727389844 c 0
 800.579789197 262.761005146 815.248855095 299.456068912 815.248855095 340.54188144 c 0
 815.248855095 432.796219756 761.315916256 501.653204023 702.456938974 541.908949289 c 0
 628.744469312 589.487569945 564.30951109 597.460376929 432.774069996 597.899337621 c 0
 412.890091436 597.899337621 393.006112876 597.89914112 372.963419096 597.899022009 c 2
 336.963419096 597.899022009 l 1
 455.036580904 786.100977991 l 1
 491.036580904 786.100977991 l 2
 613.13088641 786.187217548 694.282521391 801.659978636 748.38397877 844.240137534 c 0
 764.026580345 857.994319732 775.030038881 878.676223236 775.030038881 914.681845495 c 0
 775.030038881 968.23442674 752.094851741 1006.29930143 721.811764873 1038.07741017 c 0
 673.041848341 1085.95109311 598.70028813 1114.00248849 501.635410105 1114.00248849 c 0
 413.689751996 1114.00248849 326.855721581 1089.16920101 239.711486042 1043.59947713 c 1
 264.288513958 1204.40052287 l 1
 391.452944286 1270.89772653 510.787241932 1302.07440222 620.854224876 1302.07440222 c 0
 783.849146969 1302.07440222 905.879502133 1237.69167113 949.062297368 1117.71998327 c 0
 958.197465125 1091.07964498 963.268322404 1063.19531747 963.268322404 1033.23622192 c 0
 963.268322404 913.627699339 884.075282694 811.183338156 812.209228559 746.23371866 c 1
EndSplineSet
EndChar

StartChar: uni1703
Encoding: 5891 5891 7
GlifName: uni1703
Width: 1968
VWidth: 0
GlyphClass: 2
Flags: HMW
AnchorPoint: "Anchor1" 1078 0 basechar 0
AnchorPoint: "Anchor0" 976 1386 basechar 0
AnchorPoint: "Anchor-1" 1078 0 basechar 0
AnchorPoint: "Anchor-0" 976 1386 basechar 0
LayerCount: 2
Back
SplineSet
996 964 m 5
 996 268 l 1029
142 264 m 4
 231.748046875 172.501953125 341.748046875 122.501953125 472 114 c 4
 535.115234375 110.59375 599.880859375 117.698242188 666.294921875 135.314453125 c 4
 712.279296875 147.869140625 773.513671875 170.763671875 850 204 c 6
 1126 324 l 6
 1211.93359375 361.146484375 1279.00683594 386.455078125 1327.22070312 399.927734375 c 4
 1401.43457031 420.025390625 1472.36132812 428.716796875 1540 426 c 4
 1648.53710938 420.524414062 1746.53710938 388.524414062 1834 330 c 1028
142 976 m 4
 231.748046875 884.500976562 341.748046875 834.500976562 472 826 c 4
 535.112304688 822.59375 599.876953125 829.698242188 666.294921875 847.314453125 c 4
 712.271484375 859.866210938 773.505859375 882.76171875 850 916 c 6
 1126 1036 l 6
 1211.92871094 1073.14453125 1279.00195312 1098.45410156 1327.22070312 1111.92675781 c 4
 1401.43554688 1132.02539062 1472.36230469 1140.71679688 1540 1138 c 4
 1648.53613281 1132.52441406 1746.53613281 1100.52441406 1834 1042 c 1028
EndSplineSet
Fore
SplineSet
227.043604228 348.660172491 m 1
 316.325120501 257.637753113 424.689893388 207.272756101 561.855783629 207.272756101 c 0
 609.816510383 207.272756101 657.741060216 213.89236392 705.56092203 226.546174595 c 0
 743.387723797 236.906766029 799.763028023 257.683644435 872.412061822 289.252516735 c 2
 1148.69125436 409.373554124 l 2
 1238.23704746 448.08148264 1309.21771926 475.402952306 1366.33913364 491.118789251 c 0
 1439.3763651 510.897803967 1508.9248 520.584937017 1574.78995814 520.584937017 c 0
 1707.96864106 520.584937017 1816.75064921 483.818836843 1914.58434772 418.354960218 c 1
 1753.41565228 241.645039782 l 1
 1665.12684337 300.722103947 1569.9514271 332.385558455 1456.60643952 332.385558455 c 0
 1402.05136641 332.385558455 1346.0818887 324.404435577 1288.506553 308.846045071 c 0
 1248.56626154 297.647556637 1185.75743063 274.266509968 1103.30874564 238.626445876 c 2
 827.587938178 118.747483265 l 2
 694.238599944 60.8019331324 600.023375049 19.0714409436 443.765595641 19.0714409436 c 0
 280.733327087 19.0714409436 156.392033217 77.9652914301 56.9563957724 179.339827509 c 1
 227.043604228 348.660172491 l 1
227.0437091 1060.66006557 m 1
 316.324961779 969.636943445 424.689505111 919.272744772 561.854858284 919.272744772 c 0
 609.813465304 919.272744772 657.737861617 925.892253245 705.562426366 938.546579197 c 0
 743.377801914 948.903406062 799.752832204 969.680583386 872.412061822 1001.25251674 c 2
 1148.69105086 1121.37346616 l 2
 1238.22950518 1160.07838653 1309.21216751 1187.4009908 1366.33825597 1203.117575 c 0
 1439.37689146 1222.89767075 1508.92571496 1232.58493582 1574.79036947 1232.58493582 c 0
 1707.96806587 1232.58493582 1816.749644 1195.81877852 1914.58422382 1130.35504312 c 1
 1753.41577618 953.64495688 l 1
 1665.1259298 1012.72205562 1569.9507498 1044.38555629 1456.60689326 1044.38555629 c 0
 1402.05197639 1044.38555629 1346.08199806 1036.40419332 1288.5056209 1020.8448208 c 0
 1248.56315011 1009.64700289 1185.75457551 986.265426965 1103.30894914 950.626533844 c 2
 827.587938178 830.747483265 l 2
 694.229807067 772.800625733 600.024502752 731.071452123 443.76400293 731.071452123 c 0
 280.732416633 731.071452123 156.39139044 789.964864771 56.9562909003 891.339934427 c 1
 227.0437091 1060.66006557 l 1
901.899022009 904.963419096 m 5
 1090.10097799 1023.0365809 l 1
 1090.10097799 327.036580904 l 1
 901.899022009 208.963419096 l 1
 901.899022009 904.963419096 l 5
EndSplineSet
EndChar

StartChar: uni1704
Encoding: 5892 5892 8
GlifName: uni1704
Width: 1674
VWidth: 0
GlyphClass: 2
Flags: HMW
AnchorPoint: "Anchor1" 973 -107 basechar 0
AnchorPoint: "Anchor0" 893 1480 basechar 0
AnchorPoint: "Anchor-1" 1090 0 basechar 0
AnchorPoint: "Anchor-0" 800 1386 basechar 0
LayerCount: 2
Back
SplineSet
844 1124 m 4
 897.782226562 1163.81542969 963.782226562 1196.67675781 1047.484375 1196.67675781 c 4
 1200.79199219 1196.67675781 1275.25878906 1088.20996094 1288.88769531 945.125 c 4
 1290.96679688 921.162109375 1292.00585938 860.328125 1292.00585938 762.62109375 c 4
 1292.00585938 758.48046875 1292.00390625 754.2734375 1292 750 c 6
 1292 348 l 5
 1293.45106111 141.623331005 1381.52362472 75.9780430334 1580 66 c 6
 1620 64 l 1029
252 1124 m 0
 359.138970239 1180.02543026 462.220335981 1208.03814539 561.244576179 1208.03814539 c 0
 708.376286619 1208.03814539 817.078619065 1150.57772493 857.141601562 1044.40625 c 0
 865.146686686 1021.06150348 869.149011726 997.57947716 869.149011726 973.959735989 c 0
 869.149011726 889.222707875 821.273770975 829.588870915 772 788 c 0
 684.25634024 716.712365218 594.319616561 692.11465049 432 692 c 1
 492 692 l 2
 630.975681832 691.536209703 703.764051069 681.579490849 782.966796875 630.31640625 c 0
 852.702961076 582.732750316 909.364843178 507.584978729 909.364843178 399.815586294 c 0
 909.364843178 277.863439687 836.29160793 193.052322778 758.100585938 141.46484375 c 0
 677.434503896 90.0103224342 579.360235974 63.452499444 457.243510502 63.452499444 c 0
 345.834308189 63.452499444 233.420304518 84.9680830475 120 128 c 1024
EndSplineSet
Fore
SplineSet
827.611130222 1188.93537193 m 1
 897.210436649 1240.46031741 989.355547939 1291.55334947 1104.49607353 1291.55334947 c 0
 1283.00430686 1291.55334947 1368.9485141 1167.55506 1383.55956658 1006.98632516 c 0
 1386.0549105 978.225992248 1386.88244452 918.160607506 1386.88244452 819.604686623 c 2
 1386.87659166 807.011698532 l 1
 1386.87659166 405.227974142 l 1
 1388.2344289 220.092348514 1459.34228944 169.88275893 1639.90175826 160.805456166 c 2
 1679.90175826 158.805456166 l 1
 1560.09824174 -30.8054561656 l 1
 1520.09824174 -28.8054561656 l 2
 1304.35943601 -17.959575468 1197.12489131 63.6579573198 1197.12489131 290.565561261 c 2
 1197.12489131 705.637500877 l 2
 1197.12489131 802.150923135 1195.88756939 863.659291168 1194.23356297 883.057432348 c 0
 1182.54859339 1005.04471562 1121.56277893 1101.80016615 990.472676468 1101.80016615 c 0
 930.207772254 1101.80016615 893.578725525 1083.63535436 860.388869778 1059.06462807 c 1
 827.611130222 1188.93537193 l 1
815.345946202 745.668824299 m 1
 918.102899716 697.586382181 1004.24143484 605.479005144 1004.24143484 456.827284826 c 0
 1004.24143484 323.539814332 936.441808502 223.198687453 862.60586411 149.362743061 c 0
 753.57238798 40.3292669312 606.25807566 -31.4240922166 400.23181197 -31.4240922166 c 0
 281.075255306 -31.4240922166 163.650419345 -8.55304391046 46.5498003449 35.8751925795 c 1
 193.450199655 220.12480742 l 1
 303.190189691 178.489210005 410.593361072 158.329091105 514.255209034 158.329091105 c 0
 669.881433049 158.329091105 814.488251517 189.401723353 814.488251517 342.803887762 c 4
 814.488251517 470.226831849 714.116037695 557.784682635 606.187823491 583.378242216 c 0
 562.983845262 593.623418596 510.61822653 596.870679518 434.786973068 597.123743933 c 2
 374.988301468 597.123743933 l 1
 488.968928398 786.876576552 l 1
 653.30034817 786.992648794 713.002242163 811.878614681 753.1627297 852.039102218 c 0
 767.377506287 866.253878805 774.272420065 881.216372384 774.272420065 916.948037457 c 0
 774.272420065 969.236653741 749.371087102 1010.90157273 721.009462636 1039.2631972 c 0
 673.369847552 1086.90281228 597.788468632 1113.16155373 504.232877647 1113.16155373 c 0
 416.471011215 1113.16155373 330.806254914 1088.9657796 243.018236333 1043.05940676 c 1
 260.981763667 1204.94059324 l 1
 387.471685564 1271.08508092 507.969660747 1302.91473705 618.256274711 1302.91473705 c 0
 780.657636876 1302.91473705 903.245362261 1239.81764242 949.289684375 1117.79493502 c 0
 958.985931959 1090.85673212 964.025603387 1061.64150442 964.025603387 1030.97143452 c 0
 964.025603387 905.093996534 884.835515415 808.315554409 815.345946202 745.668824299 c 1
EndSplineSet
EndChar

StartChar: uni1705
Encoding: 5893 5893 9
GlifName: uni1705
Width: 2022
VWidth: 0
GlyphClass: 2
Flags: HMW
AnchorPoint: "Anchor1" 1128 0 basechar 0
AnchorPoint: "Anchor0" 976 1386 basechar 0
AnchorPoint: "Anchor-1" 1128 0 basechar 0
AnchorPoint: "Anchor-0" 976 1386 basechar 0
LayerCount: 2
Back
SplineSet
1480 168 m 4
 1586.13574219 196.000976562 1674.13574219 248.000976562 1744 324 c 4
 1783.28808594 368.063476562 1811.72460938 414.749023438 1829.31054688 464.057617188 c 4
 1848.14746094 520.080078125 1852.50097656 574.28515625 1842.37304688 626.674804688 c 4
 1829.90527344 683.903320312 1803.22070312 730.927734375 1762.31933594 767.747070312 c 4
 1718.96679688 804.775390625 1668.86035156 824.859375 1612 828 c 4
 1564.86035156 829.524414062 1518.08789062 819.317382812 1471.68261719 797.380859375 c 4
 1437.11230469 780.353515625 1397.21777344 753.2265625 1352 716 c 4
 1287.04199219 662.923828125 1238.47363281 628.927734375 1206.29296875 614.01171875 c 4
 1178.51757812 601.813476562 1150.08691406 593.41796875 1121 588.826171875 c 4
 1098.56347656 585.631835938 1068.89746094 584.0234375 1032 584 c 6
 956 584 l 1029
360 1224 m 5
 296 1188 l 6
 253.276367188 1163.234375 223.259765625 1140.12695312 205.94921875 1118.67675781 c 4
 181.533203125 1085.90820312 170.217773438 1050.34863281 172 1012 c 4
 175.802734375 967.936523438 194.290039062 931.330078125 227.463867188 902.180664062 c 4
 260.178710938 875.481445312 299.024414062 861.420898438 344 860 c 4
 387.8671875 859.680664062 447.795898438 876.575195312 523.787109375 910.682617188 c 4
 598.943359375 943.796875 659.014648438 960.236328125 704 960 c 4
 750.987304688 958.556640625 793.140625 945.342773438 830.459960938 920.356445312 c 4
 866.390625 894.748046875 894.99609375 860.880859375 916.275390625 818.75390625 c 4
 948.688476562 751.7109375 963.262695312 664.126953125 960 556 c 4
 957.712890625 495.408203125 950.0234375 443.669921875 936.931640625 400.786132812 c 4
 918.958984375 345.612304688 891.981445312 301.350585938 856 268 c 4
 814.619140625 231.561523438 765.1484375 209.862304688 707.587890625 202.900390625 c 4
 665.712890625 198.573242188 611.184570312 202.939453125 544 216 c 4
 474.624023438 229.552734375 425.060546875 236.076171875 395.310546875 235.5703125 c 4
 337.8125 233.676757812 291.375 217.819335938 256 188 c 4
 234.259765625 168.09375 218.919921875 145.471679688 209.981445312 120.133789062 c 4
 201.462890625 92.2431640625 200.650390625 64.994140625 207.543945312 38.38671875 c 4
 216.15625 10.5908203125 230.977539062 -12.248046875 252.009765625 -30.1298828125 c 4
 274.959960938 -47.830078125 300.290039062 -57.787109375 328 -60 c 1028
EndSplineSet
Fore
SplineSet
954.766601562 683.353515625 m 1
 1090.76619497 683.353920336 l 2
 1228.89224983 683.44165974 1264.33889986 718.907034122 1344.25985845 784.184216547 c 0
 1431.40667931 855.883804173 1529.92624896 927.504504253 1661.46621238 927.504504253 c 0
 1823.38861747 927.504504253 1936.10058966 802.727482857 1936.10058966 636.964769685 c 0
 1936.10058966 346.393570337 1648.05777349 126.704469494 1435.85424679 70.7204451197 c 1
 1524.14575321 265.27955488 l 1
 1664.28557018 302.251562426 1759.27026583 369.920572564 1759.27026583 505.138176001 c 0
 1759.27026583 629.090892652 1664.32024698 728.792693006 1544.1634299 728.792693006 c 0
 1475.85696915 728.792693006 1435.50822115 704.262522008 1392.00000176 672.789438629 c 0
 1260.26220149 577.492622768 1188.40302613 484.782727941 973.233398438 484.646484375 c 2
 947.233398438 484.646484375 l 1
 954.766601562 683.353515625 l 1
327 1281 m 1
 395 1160 l 1
 351 1150 260.21484375 1112 260.21484375 1055.33984375 c 0
 260.21484375 986.68359375 332.353902406 959.34958518 403.961551666 959.34958518 c 0
 436.606471952 959.34958518 486.280013335 972.879981687 554.082311916 1003.03343574 c 0
 636.299971749 1039.25898963 706.214858285 1059.356477 761.790688709 1059.356477 c 0
 879.776562013 1059.356477 959.859116252 986.437362319 1000.99578737 903.201404832 c 0
 1033.08160015 836.835365285 1048.82956997 752.490846226 1048.82956997 651.198928146 c 0
 1048.82956997 443.739281727 966.330475048 242.189721273 808.000049965 151.639741482 c 0
 752.596824135 119.954353303 687.908424816 101.860317951 614.220540202 101.860317951 c 0
 549.41153082 101.860317951 387.687334865 136.241203361 339.531597451 136.241203361 c 0
 321.297319066 136.241203361 291.954101562 126 291.954101562 100.419921875 c 0
 291.954101562 60 341.983332098 43.062831502 390.009577137 39.2275021181 c 1
 265.990422857 -159.227502118 l 1
 178.898060785 -152.272390489 114.445390272 -87.4986138776 114.445390272 8.52949228283 c 0
 114.445390272 31.2387498381 119.282990411 60.1329865207 128.025291078 86.6744403993 c 0
 147.102593 140.752849188 198.962440119 212.961694226 245.894362112 254.216966606 c 0
 305.84225729 304.750010424 366.888055389 334.954937974 457.762401719 334.954937974 c 0
 511.699689935 334.954937974 666.961178986 300.706927883 733.753633603 300.706927883 c 0
 866.923793534 300.706927883 872.065638951 382.226256458 872.065638951 519.1050294 c 0
 872.065638951 664.860066336 837.021145719 766.663705792 754.178883262 825.892843979 c 0
 721.533862352 847.672070744 683.540371594 860.648548185 644.291668096 860.648548185 c 0
 610.170214791 860.648548185 560.693287752 847.910086073 493.835456772 818.483087829 c 0
 411.225648344 781.437442864 341.428474594 760.641523622 286.489466257 760.641523622 c 0
 173.924066419 760.641523622 83.4556946405 839.769144535 83.4556946405 952.904531008 c 0
 83.4556946405 1081.95456466 188.764014465 1208.13953912 314.886631136 1274.61536987 c 2
 327 1281 l 1
EndSplineSet
EndChar

StartChar: uni1706
Encoding: 5894 5894 10
GlifName: uni1706
Width: 1950
VWidth: 0
GlyphClass: 2
Flags: HMW
AnchorPoint: "Anchor1" 1078 0 basechar 0
AnchorPoint: "Anchor0" 976 1386 basechar 0
AnchorPoint: "Anchor-1" 1078 0 basechar 0
AnchorPoint: "Anchor-0" 976 1386 basechar 0
LayerCount: 2
Back
SplineSet
256 852 m 4
 227.482421875 834.616210938 208.75 810.37890625 199.801757812 779.2890625 c 4
 192.368164062 747.291992188 196.43359375 716.862304688 212 688 c 4
 227.674804688 662.2265625 249.379882812 642.5546875 277.115234375 628.984375 c 4
 303.700195312 617.217773438 332.662109375 611.556640625 364 612 c 4
 411.920898438 613.73828125 462.65234375 628.83203125 516.193359375 657.279296875 c 4
 555.842773438 678.885742188 599.77734375 709.125976562 648 748 c 4
 671.485351562 766.985351562 706.276367188 796.088867188 752.37109375 835.30859375 c 4
 875.372070312 939.580078125 971.249023438 1011.81054688 1040 1052 c 4
 1170.13867188 1126.984375 1303.06933594 1172.20605469 1438.79003906 1187.66601562 c 4
 1583.25976562 1203.15722656 1722.33007812 1185.93457031 1856 1136 c 5
 1732.4765625 1182.62304688 1604.4765625 1199.95605469 1472 1188 c 4
 1325.75 1173.84570312 1181.75 1125.17871094 1040 1042 c 4
 813.055664062 908.307617188 638.411132812 724.7421875 516.064453125 491.302734375 c 4
 501.45703125 463.213867188 488.102539062 435.446289062 476 408 c 4
 418.793945312 276.56640625 384.126953125 140.56640625 372 0 c 1028
EndSplineSet
Fore
SplineSet
419.632327601 706.076830889 m 0
 456.817316289 706.076830889 491.473183766 718.131448404 526.682079702 736.728972397 c 0
 597.394229909 775.486990466 648.952458964 823.63419174 726.761519866 889.83807926 c 0
 855.559735356 999.024050701 957.903419611 1077.81637796 1045.95063198 1128.91703169 c 0
 1195.67697354 1215.18759202 1344.97487712 1265.23852451 1491.06089711 1281.39211019 c 0
 1527.75890026 1285.32716649 1563.95818952 1287.27998598 1599.67753838 1287.27998598 c 0
 1723.47996841 1287.27998598 1835.4515378 1263.36552327 1930.2996535 1227.56577357 c 1
 1781.8079019 1044.39383913 l 1
 1698.06376076 1075.67782367 1601.44826337 1097.55044886 1493.37490951 1097.55044886 c 0
 1468.56872456 1097.55044886 1443.70218265 1096.42097134 1418.78681889 1094.17890462 c 0
 1174.07968159 1070.43319637 944.853890261 929.369169209 802.638093742 787.153372691 c 0
 634.94240878 619.457693624 522.333984375 360.518554688 495.864257812 53.701171875 c 1
 278.135386064 -53.7015901505 l 1
 290.888368149 94.1212670983 327.448221513 241.103251482 391.048806699 386.276094242 c 0
 418.425786509 448.361950587 451.167150494 510.708791518 485.630986569 567.564840261 c 1
 419.771927268 535.30990395 359.193598459 517.874868476 301.558430127 517.874868476 c 0
 216.008109012 517.874868476 156.16648189 553.889562276 122.966008459 608.479737016 c 0
 109.814505194 631.428703308 102.006405297 658.669501183 102.006405297 689.345714798 c 0
 102.006405297 705.296489253 104.609888367 724.695611595 109.05083537 741.746201734 c 0
 119.146322663 776.82204299 143.376833555 826.281828686 190.003105036 872.908100167 c 0
 212.704630305 895.609625436 236.434039163 913.42951848 257.939692931 926.538967926 c 1
 290.818904568 817.854065991 l 1
 290.227722711 812.684918476 289.942490975 807.733024516 289.942490975 802.990961585 c 0
 289.942490975 728.972381185 359.436077051 706.076830889 419.632327601 706.076830889 c 0
EndSplineSet
EndChar

StartChar: uni1707
Encoding: 5895 5895 11
GlifName: uni1707
Width: 2096
VWidth: 0
GlyphClass: 2
Flags: HMW
AnchorPoint: "Anchor1" 1104 0 basechar 0
AnchorPoint: "Anchor0" 1054 1386 basechar 0
AnchorPoint: "Anchor-1" 1104 0 basechar 0
AnchorPoint: "Anchor-0" 1054 1386 basechar 0
LayerCount: 2
Back
SplineSet
486 918 m 1
 454 886 l 2
 386.801757812 818.205078125 340.543945312 763.393554688 315.225585938 721.568359375 c 0
 275.190429688 652.998046875 257.448242188 584.475585938 262 516 c 0
 269.700195312 427.359375 309.1328125 355.033203125 380.296875 299.021484375 c 0
 444.841796875 250.083007812 524.076171875 223.7421875 618 220 c 0
 707.6875 216.799804688 833.54296875 241.62890625 995.567382812 294.486328125 c 2
 997.569335938 295.139648438 l 1
 999.5703125 295.79296875 l 1
 1001.57128906 296.446289062 l 1
 1003.57226562 297.100585938 l 1
 1005.57324219 297.75390625 l 1
 1007.57324219 298.408203125 l 1
 1009.57421875 299.0625 l 1
 1013.18945312 300.245117188 l 2
 1025.34667969 304.217773438 1034.12597656 307.083984375 1039.52929688 308.842773438 c 0
 1214.14160156 365.2109375 1354.96484375 394.262695312 1462 396 c 0
 1647.30371094 398.5390625 1807.98339844 343.985351562 1944.03808594 232.338867188 c 0
 1948.04101562 229.014648438 1951.36132812 226.235351562 1954 224 c 1024
142 1080 m 0
 271.310546875 969.6875 426.37109375 914.9765625 607.181640625 915.868164062 c 0
 611.455078125 915.907226562 615.061523438 915.951171875 618 916 c 0
 720.006835938 918.362304688 860.723632812 947.389648438 1040.14941406 1003.08300781 c 0
 1222.76367188 1059.40722656 1363.37988281 1089.04589844 1462 1092 c 0
 1642.984375 1096.96582031 1799.81640625 1045.70898438 1932.49707031 938.229492188 c 0
 1940.44628906 931.693359375 1947.61425781 925.6171875 1954 920 c 1024
EndSplineSet
Fore
SplineSet
1870.8506087 137.578895924 m 5
 1742.74449715 246.10402128 1588.61319118 301.983809538 1415.30253161 301.983809538 c 4
 1307.29115144 301.983809538 1180.46699244 275.638838975 1005.52463787 219.175665557 c 4
 990.927913258 214.4087663 976.332815175 209.639335022 961.734611032 204.875326648 c 4
 803.094995469 153.122131708 674.069123309 125.619249362 574.985546372 125.619249362 c 4
 351.909020278 125.619249362 167.217543967 255.862638908 167.217543967 477.534871546 c 4
 167.217543967 664.888539529 306.172685509 819.015391703 413.341360082 926.658639918 c 6
 445.341360082 958.658639918 l 5
 526.658639918 877.341360082 l 5
 495.069231024 845.751951188 l 6
 448.914415971 799.162182919 417.502773364 768.230933886 390.76586701 725.14585082 c 4
 369.522931085 688.302004101 355.388134845 646.085909448 355.388134845 596.416100332 c 4
 355.388134845 421.453051565 514.761970563 313.832482762 692.45066997 313.832482762 c 4
 773.823668273 313.832482762 934.870215186 353.270858479 1073.70937489 398.566504114 c 4
 1261.08247971 459.054096514 1405.17083654 490.185568832 1533.34727097 490.185568832 c 4
 1730.22023923 490.185568832 1899.26404688 427.230709075 2037.1493913 310.421104076 c 5
 1870.8506087 137.578895924 l 5
1870.4550424 833.920373731 m 5
 1749.61379879 940.217794275 1596.01107102 998.228523267 1426.83903788 998.228523267 c 4
 1315.74313318 998.228523267 1196.36163627 972.072383843 1004.56760924 912.916823579 c 4
 810.978204851 852.827107406 671.133263103 821.758170462 544.042933553 821.758170462 c 4
 353.397705001 821.758170462 191.915368506 880.063525575 58.7769238483 993.641536272 c 5
 225.223076152 1166.35846373 l 5
 348.632178175 1061.08038011 494.374896022 1009.95671206 661.632241765 1009.95671206 c 4
 767.6017071 1009.95671206 893.167597318 1036.58185409 1075.73121888 1093.24919204 c 4
 1277.1974668 1155.38798205 1412.46507233 1186.42938258 1544.8344154 1186.42938258 c 4
 1738.21286898 1186.42938258 1906.5416727 1121.31603772 2037.5449576 1006.07962627 c 5
 1870.4550424 833.920373731 l 5
EndSplineSet
EndChar

StartChar: uni1708
Encoding: 5896 5896 12
GlifName: uni1708
Width: 1700
VWidth: 0
GlyphClass: 2
Flags: HMW
AnchorPoint: "Anchor1" 893 -253 basechar 0
AnchorPoint: "Anchor0" 874 1493 basechar 0
AnchorPoint: "Anchor-0" 820 1386 basechar 0
AnchorPoint: "Anchor-1" 874 -176 basechar 0
LayerCount: 2
Back
SplineSet
728 -100 m 4
 750.8984375 -58.734375 777.565429688 -20.068359375 808 16 c 4
 841.255859375 54.8271484375 877.255859375 89.494140625 916 120 c 4
 923.8046875 125.961914062 935.288085938 134.10546875 950.44921875 144.430664062 c 4
 965.326171875 155.462890625 975.48828125 165.046875 980.935546875 173.181640625 c 4
 984.524414062 180.314453125 986.733398438 186.934570312 987.5625 193.04296875 c 4
 987.53515625 200.766601562 986.274414062 207.608398438 983.778320312 213.568359375 c 4
 979.8203125 220.030273438 975.341796875 225.377929688 970.342773438 229.611328125 c 4
 965.166992188 233.16015625 959.052734375 236.623046875 952 240 c 6
 804 310 l 6
 792.689453125 315.665039062 784.86328125 320.021484375 780.522460938 323.071289062 c 4
 772.728515625 330.142578125 767.471679688 337.225585938 764.750976562 344.322265625 c 4
 762.962890625 353.80859375 764.08984375 362.444335938 768.133789062 370.229492188 c 4
 771.2421875 374.3359375 774.188476562 377.693359375 776.97265625 380.30078125 c 4
 780.556640625 383.026367188 784.232421875 385.592773438 788 388 c 6
 972 504 l 6
 977.234375 507.546875 980.849609375 510.104492188 982.845703125 511.674804688 c 4
 986.579101562 515.642578125 989.37109375 519.0546875 991.223632812 521.91015625 c 4
 993.147460938 526.65234375 994.338867188 530.884765625 994.796875 534.608398438 c 4
 994.517578125 539.609375 993.776367188 543.9453125 992.572265625 547.6171875 c 4
 988.416015625 555.399414062 982.696289062 562.002929688 975.413085938 567.427734375 c 4
 969.575195312 571.134765625 961.770507812 575.325195312 952 580 c 6
 802 652 l 6
 793.54296875 656.396484375 787.702148438 659.751953125 784.479492188 662.065429688 c 4
 778.859375 667.69140625 775.053710938 673.127929688 773.063476562 678.374023438 c 4
 772.06640625 685.60546875 772.938476562 692.120117188 775.680664062 697.91796875 c 4
 779.502929688 703.022460938 784.276367188 707.715820312 790 712 c 6
 912 800 l 6
 930.174804688 813.212890625 940.146484375 820.518554688 941.9140625 821.918945312 c 4
 953.272460938 832.19140625 960.905273438 841.729492188 964.813476562 850.536132812 c 4
 966.75 857.243164062 967.615234375 863.309570312 967.409179688 868.736328125 c 4
 966.151367188 875.434570312 964.119140625 881.20703125 961.311523438 886.053710938 c 4
 957.057617188 891.293945312 952.686523438 895.606445312 948.196289062 898.993164062 c 4
 944.157226562 901.520507812 938.7578125 904.522460938 932 908 c 4
 889.490234375 931.540039062 858.709960938 965.891601562 839.659179688 1011.05371094 c 4
 826.626953125 1044.49902344 820.073242188 1090.81445312 820 1150 c 6
 820 1198 l 1029
288 0 m 4
 232.225585938 157.567382812 208.891601562 316.234375 218 476 c 4
 229.975585938 666.073242188 284.83203125 825.904296875 382.568359375 955.493164062 c 4
 437.529296875 1026.73828125 501.267578125 1083.1875 573.782226562 1124.83886719 c 4
 651.251953125 1168.15136719 732.657226562 1192.53808594 818 1198 c 4
 910.717773438 1202.92285156 999.546875 1186.04589844 1084.48828125 1147.36914062 c 4
 1166.90332031 1108.68652344 1238.66113281 1053.375 1299.76171875 981.43359375 c 4
 1411.98828125 846.919921875 1474.06738281 678.442382812 1486 476 c 4
 1494.64746094 314.31640625 1469.98046875 155.650390625 1412 0 c 1028
EndSplineSet
Fore
SplineSet
627.340820312 -181.064453125 m 1
 687.777945357 -72.1485627196 772.982662399 24.5729802402 874.579101562 98.28515625 c 1
 870.68359375 102.905273438 866.0234375 104.975585938 859.345703125 108.172851562 c 0
 805.541434129 133.627848451 655.119140625 172.88721376 655.119140625 246.3984375 c 0
 655.119140625 313.351773637 727.115523845 362.621341711 792.652162766 400 c 2
 869.2109375 443.232421875 l 1
 819.96899039 469.131244305 663.901367188 509.762207566 663.901367188 577.668945312 c 0
 663.901367188 626.631636356 706.24329989 659.091698043 740.159179688 684.01171875 c 2
 854.442382812 766.446289062 l 1
 849.676757812 771.333984375 845.258789062 772.971679688 837.315429688 777.211914062 c 0
 750.939698053 825.044707081 706.516011407 907.49858636 706.348632812 1042.79199219 c 1
 711.348632812 1150.79199219 l 1
 928.651367188 1185.20800781 l 1
 928.651367188 1044.79613417 941.319163532 966.336901949 1026.25 919.028320312 c 0
 1050.38800374 906.57512092 1076.08984375 889.885840903 1076.08984375 854.3671875 c 0
 1076.08984375 785.286799384 1008.55727232 741.94512895 962.610351562 708.54296875 c 2
 898.235351562 662.108398438 l 1
 1044.84667969 591.735351562 l 2
 1074.1042938 577.737736691 1101.19151374 563.181644606 1103.3984375 523.610351562 c 0
 1101.19739602 464.117630736 1045.26546256 427.015327873 1008.17773438 402.7734375 c 2
 887.428710938 326.6484375 l 1
 890.151367188 325.174804688 893.3828125 323.481445312 897.0390625 321.645507812 c 2
 1044.65429688 251.827148438 l 2
 1072.47719222 238.504522259 1096.07042524 220.713835971 1096.21386719 180.368164062 c 0
 1091.24246244 107.435916876 1060 82 972.306640625 32.7890625 c 0
 911.654045494 -1.24739236367 865.825075009 -71.9601131571 828.659179688 -138.935546875 c 1
 627.340820312 -181.064453125 l 1
107.441296301 361.7092595 m 0
 107.441296301 611.194345036 177.604983233 799.508827799 291.326293243 948.587971569 c 0
 414.9805727 1108.87933542 632.357839277 1275.50369111 916.721462119 1275.50369111 c 4
 1192.56360851 1275.50369111 1374.45524176 1117.30969098 1479.16342724 935.949793757 c 0
 1555.86488087 803.098979057 1596.338038 650.150487892 1596.338038 460.308338737 c 0
 1596.338038 316.330559327 1570.42378294 173.525337651 1517.49559515 31.4379540725 c 1
 1306.50440485 -31.4379540725 l 1
 1354.48654116 97.3715988891 1379.02891894 230.032248114 1379.02891894 366.0911664 c 0
 1379.02891894 708.037209781 1228.18743393 964.500841177 992.132236696 1075.40174507 c 0
 921.279282073 1107.6299091 849.941534362 1122.16430588 781.804237389 1122.16430588 c 0
 624.810698477 1122.16430588 552.352132777 1063.97105918 474.265129878 962.987084965 c 0
 382.595558464 841.136453466 324.722830241 669.615008538 324.722830241 455.854397983 c 0
 324.722830241 322.684481177 348.039832837 189.625095684 395.107084318 56.6561751352 c 1
 180.892915682 -56.6561751352 l 1
 132.070260714 81.2719070255 107.441296301 220.734147051 107.441296301 361.7092595 c 0
EndSplineSet
EndChar

StartChar: uni1709
Encoding: 5897 5897 13
GlifName: uni1709
Width: 2140
GlyphClass: 2
Flags: HMW
AnchorPoint: "Anchor1" 1180 0 basechar 0
AnchorPoint: "Anchor0" 976 1386 basechar 0
AnchorPoint: "Anchor-1" 1180 0 basechar 0
AnchorPoint: "Anchor-0" 976 1386 basechar 0
LayerCount: 2
Back
SplineSet
1410 808 m 0
 1476.765625 728.678710938 1535.43261719 644.678710938 1586 556 c 0
 1607.79101562 517.416992188 1627.79101562 478.75 1646 440 c 1024
114 812 m 1
 358 812 l 2
 363.091796875 812 370.73046875 812.056640625 380.915039062 812.170898438 c 0
 398.44921875 812.3671875 411.598632812 812.369140625 420.36328125 812.176757812 c 0
 446.102539062 811.091796875 466.415039062 807.393554688 481.299804688 801.08203125 c 0
 491.584960938 795.846679688 500.114257812 790.010742188 506.889648438 783.576171875 c 0
 514.3046875 775.18359375 519.887695312 766.504882812 523.637695312 757.541015625 c 0
 526.965820312 747.49609375 528.76171875 737.315429688 529.026367188 727 c 0
 528.862304688 718.517578125 527.853515625 708.184570312 526 696 c 2
 502 540 l 2
 487.991210938 447.999023438 480.236328125 385.952148438 478.734375 353.860351562 c 0
 476.215820312 280.2734375 487.971679688 219.653320312 514 172 c 0
 533.487304688 138.819335938 557.97265625 112.514648438 587.458984375 93.0869140625 c 0
 619.091796875 73.6630859375 653.271484375 62.6337890625 690 60 c 0
 743.540039062 57.45703125 798.20703125 72.1240234375 854 104 c 0
 929.865234375 148.669921875 1013.01660156 228.594726562 1103.45410156 343.774414062 c 0
 1161.015625 417.500976562 1225.86425781 513.576171875 1298 632 c 2
 1522 1000 l 2
 1566.64257812 1072.03027344 1608.45605469 1122.20214844 1647.4375 1150.515625 c 0
 1704.48925781 1191.12011719 1766.67675781 1207.61523438 1834 1200 c 0
 1881.04589844 1193.95703125 1923.31152344 1177.37988281 1960.796875 1150.26855469 c 0
 1998.57910156 1121.3984375 2026.98046875 1085.97558594 2046 1044 c 1024
EndSplineSet
Fore
SplineSet
1555.42768897 363.348299293 m 1
 1492.34011676 497.603091989 1416.31608747 614.673429057 1323.52134192 724.918766167 c 1
 1496.47865808 891.081233833 l 1
 1592.39803747 777.123657321 1671.21760994 655.731103192 1736.57231103 516.651700707 c 1
 1555.42768897 363.348299293 l 1
434.898048532 667.735556563 m 0
 432.764213929 710.342888455 395.095574438 718.216094439 345.055459302 718.216094439 c 0
 333.77678091 718.216094439 309.021585325 717.899022009 298.963419096 717.899022009 c 2
 54.9634190962 717.899022009 l 1
 173.036580904 906.100977991 l 1
 417.036580904 906.100977991 l 2
 426.838753562 906.100977991 452.152995786 906.423096189 463.193293911 906.423096189 c 0
 556.991967407 906.423096189 620.81400994 876.923768634 623.109216271 787.461538263 c 0
 623.148242889 773.689561385 621.656684007 760.489178952 619.283275281 744.886955213 c 2
 595.301520462 589.006160071 l 2
 579.430684502 484.776421127 572.500681047 440.112129962 572.500681047 393.652121705 c 0
 572.500681047 262.439338779 634.752381163 153.807615336 761.360467122 153.807615336 c 0
 799.291437781 153.807615336 830.992437176 164.553729561 859.478516578 180.651982166 c 0
 924.368002802 219.280703927 987.170401935 290.566583877 1043.11336451 362.254387281 c 0
 1090.40924836 422.861438956 1158.32025418 526.086736302 1225.05860546 631.999995043 c 2
 1448.21484375 999.286132812 l 2
 1499 1084 1557.93089895 1160.59621577 1637.17956221 1216.99853977 c 0
 1719.23182368 1275.39622176 1794.33944619 1295.91718312 1861.29718715 1295.91718312 c 0
 1998.96513159 1295.91718312 2092.52079425 1217.87954706 2136.7562464 1120.25311251 c 1
 1955.2437536 967.746887508 l 1
 1921.57869118 1042.04476068 1846.45226577 1107.69226937 1743.66776615 1107.69226937 c 0
 1698.42606854 1107.69226937 1668.6199901 1094.86686977 1654.64420516 1080.89108483 c 0
 1645.64645091 1071.89333058 1622.84757161 1044.28854542 1596.17609822 1001.34347231 c 2
 1372.6038657 634.046233182 l 2
 1255.43508214 441.69254738 1167.24319703 309.830387636 1028.38284688 170.96999104 c 0
 934.873341914 77.4604547898 798.086375939 -34.3718355598 642.428406582 -34.3718355598 c 0
 537.007338867 -34.3718355598 464.152110868 23.2875141562 424.273572693 93.6805490588 c 0
 397.479735784 142.735396906 384.301500257 203.740518488 384.301500257 275.722723655 c 0
 384.301500257 358.564179922 416.88673276 544.217694232 432.716724719 647.113044787 c 0
 434.081245832 656.083081785 434.724027179 662.995273298 434.898048532 667.735556563 c 0
EndSplineSet
EndChar

StartChar: uni170A
Encoding: 5898 5898 14
GlifName: uni170A_
Width: 1694
GlyphClass: 2
Flags: HMW
AnchorPoint: "Anchor1" 1032 -158 basechar 0
AnchorPoint: "Anchor0" 1013 1480 basechar 0
AnchorPoint: "Anchor-1" 1032 -158 basechar 0
AnchorPoint: "Anchor-0" 968 1386 basechar 0
LayerCount: 2
Back
SplineSet
204 522 m 0
 248.837890625 708.454101562 337.50390625 869.120117188 470 1004 c 0
 536.588867188 1070.60253906 608.5234375 1120.87109375 685.803710938 1154.8046875 c 128
 770.666992188 1190.98730469 856.732421875 1206.71875 944 1202 c 0
 1030.40039062 1196.34960938 1110.63964844 1171.95898438 1184.71582031 1128.828125 c 128
 1257.46289062 1085.17480469 1318.55761719 1027.56542969 1368 956 c 0
 1421.38378906 876.94921875 1457.81347656 787.215820312 1477.2890625 686.797851562 c 128
 1496.19140625 585.202148438 1496.42773438 488.26953125 1478 396 c 0
 1465.44433594 336.4140625 1446.03515625 283.91796875 1419.77441406 238.509765625 c 128
 1388.68261719 186.958007812 1350.7578125 146.12109375 1306 116 c 0
 1234.37011719 69.8251953125 1157.70410156 53.8251953125 1076 68 c 0
 985.548828125 84.3525390625 915.643554688 131.793945312 866.28515625 210.323242188 c 0
 862.3203125 216.817382812 858.892578125 222.709960938 856 228 c 1
 790.438476562 169.70703125 721.104492188 125.70703125 648 96 c 0
 601.435546875 77.7216796875 557.169921875 66.7412109375 515.202148438 63.0595703125 c 128
 466.323242188 59.607421875 421.255859375 65.25390625 380 80 c 0
 337.951171875 96.1474609375 301.92578125 120.017578125 271.921875 151.609375 c 128
 242.630859375 183.943359375 220.750976562 221.290039062 206.283203125 263.6484375 c 0
 182.056640625 338.493164062 181.295898438 424.610351562 204 522 c 0
EndSplineSet
Fore
SplineSet
945.7197821 306.331610528 m 5
 991.010897044 223.501776082 1071.58591371 157.140838806 1191.22600855 157.140838806 c 0
 1324.68649625 157.140838806 1361.19938888 236.587417781 1385.44646347 351.176974968 c 0
 1393.35431954 390.934020195 1397.48345444 432.990488482 1397.48345444 477.009306619 c 0
 1397.48345444 742.595978605 1276.19926885 937.179363261 1105.34548607 1039.70355942 c 0
 1028.10992967 1084.67397079 950.33107547 1108.71120408 854.952829388 1108.71120408 c 0
 703.020432705 1108.71120408 592.346470418 1044.78074538 511.459753214 964.141354906 c 0
 409.994827012 860.579368503 336.10093581 730.828853313 295.962436047 564.15357789 c 0
 286.432298157 523.181857493 281.587199785 484.352398809 281.587199785 447.556928867 c 0
 281.587199785 306.590953623 350.586740974 211.555866256 454.109984868 171.639494408 c 0
 483.495395326 161.187085752 514.410530327 156.176811026 546.801201243 156.176811026 c 0
 595.175033849 156.176811026 630.281667915 165.678387079 674.279575543 182.869320848 c 0
 731.522737236 206.230781672 779.387510591 237.271582546 826.047779529 278.758806564 c 1
 945.7197821 306.331610528 l 5
1074.25008649 -31.1330734708 m 0
 944.28174534 -31.1330734708 854.102393513 25.5677564358 794.953374261 104.938205288 c 1
 696.241168006 35.3022363993 577.148216712 -32.022350849 428.790633433 -32.022350849 c 0
 319.708049904 -32.022350849 240.532584489 9.09234861093 186.114970271 67.7589088587 c 0
 129.296163964 130.480475733 93.4609833031 214.643395478 93.4609833031 329.579352846 c 0
 93.4609833031 376.46921619 99.5392095911 427.062906634 112.115359706 480.169695408 c 0
 167.589757773 710.854701036 277.095789608 891.035041609 429.322825873 1044.64010381 c 0
 516.114785283 1131.44988314 613.096962994 1198.89323694 709.148707812 1240.45890585 c 0
 800.394114127 1279.36262909 887.9744226 1296.92208591 972.732747145 1296.92208591 c 0
 1198.24484527 1296.92208591 1359.60497483 1176.62796817 1456.28646618 1036.68624048 c 0
 1534.89720505 920.279360577 1585.80767441 777.682126827 1585.80767441 595.105340831 c 0
 1585.80767441 335.869899784 1471.06451174 151.348402763 1308.27305409 44.1028448024 c 0
 1223.92407161 -10.271079021 1146.15129523 -31.1330734708 1074.25008649 -31.1330734708 c 0
EndSplineSet
EndChar

StartChar: uni170B
Encoding: 5899 5899 15
GlifName: uni170B_
Width: 2060
GlyphClass: 2
Flags: HMW
AnchorPoint: "Anchor1" 1154 0 basechar 0
AnchorPoint: "Anchor0" 976 1386 basechar 0
AnchorPoint: "Anchor-1" 1154 0 basechar 0
AnchorPoint: "Anchor-0" 976 1386 basechar 0
LayerCount: 2
Back
SplineSet
476 684 m 0
 592.123046875 730.724609375 712.123046875 752.05859375 836 748 c 0
 969.444335938 742.70703125 1094.77734375 709.374023438 1212 648 c 1024
124 928 m 1
 328 928 l 2
 367.709960938 927.940429688 390.036132812 927.806640625 394.978515625 927.59765625 c 0
 422.15625 925.743164062 443.721679688 920.740234375 459.67578125 912.587890625 c 0
 470.236328125 906.1875 478.845703125 899.192382812 485.50390625 891.6015625 c 0
 492.576171875 882.017578125 497.610351562 872.149414062 500.606445312 861.997070312 c 0
 503.025390625 850.99609375 503.75390625 839.91796875 502.7890625 828.76171875 c 0
 501.672851562 820.069335938 499.409179688 809.1484375 496 796 c 0
 466.375976562 681.108398438 447.786132812 575.947265625 440.229492188 480.517578125 c 0
 435.790039062 420.071289062 436.235351562 366.696289062 441.564453125 320.392578125 c 0
 449.252929688 260.118164062 464.731445312 209.3203125 488 168 c 0
 508.529296875 133.7578125 532.840820312 107.013671875 560.936523438 87.767578125 c 0
 593.327148438 67.1552734375 627.681640625 56.5654296875 664 56 c 0
 701.341796875 56.5703125 738.015625 67.095703125 774.0234375 87.5771484375 c 0
 802.580078125 104.627929688 832.572265625 128.768554688 864 160 c 0
 942.994140625 239.482421875 1018.99414062 336.81640625 1092 452 c 2
 1436 996 l 2
 1481.79980469 1067.20117188 1523.95507812 1116.84277344 1562.46582031 1144.92285156 c 0
 1620.23339844 1185.08398438 1682.078125 1202.109375 1748 1196 c 0
 1795.35546875 1190.46777344 1837.81054688 1174.14160156 1875.36523438 1147.02246094 c 0
 1913.28710938 1118.05859375 1941.49902344 1082.38476562 1960 1040 c 1024
EndSplineSet
Fore
SplineSet
1134.15218189 558.021338613 m 1
 1013.15798231 621.370021127 890.201906091 654.381642678 747.556265511 654.381642678 c 0
 641.192008798 654.381642678 541.528390545 634.074363331 450.035759377 597.260332292 c 1
 501.964240623 770.739667708 l 1
 624.143775426 819.901235467 744.731019247 842.591477266 865.189973106 842.591477266 c 0
 1025.55798277 842.591477266 1159.69023363 806.124998419 1289.84781811 737.978661387 c 1
 1134.15218189 558.021338613 l 1
1869.06314846 964.152957529 m 1
 1837.06082603 1037.46859744 1763.13302812 1103.11774133 1662.9464675 1103.11774133 c 0
 1618.20854793 1103.11774133 1585.04119915 1090.73528239 1568.56803295 1074.26211619 c 0
 1558.47091226 1064.1649955 1535.47018506 1036.51264018 1508.40314904 994.512810923 c 2
 1164.83864172 451.201497008 l 2
 1085.32309912 325.74737547 999.544926664 214.224500159 904.092498801 118.776989271 c 0
 832.613115158 47.7440463757 724.608134705 -36.2803760028 605.84556955 -38.0942087883 c 1
 604.090340326 -38.0942087883 l 2
 557.654853824 -37.3712685708 516.019402319 -24.1364358836 480.092183034 -0.411356131647 c 0
 385.900093052 64.1120261865 343.099583361 183.668494891 343.099583361 343.439550516 c 0
 343.099583361 494.042131688 365.483279465 604.393463031 404.498486367 755.707129644 c 0
 407.324104722 766.604903509 409.094772967 772.260163362 409.094772967 779.162503364 c 0
 409.094772967 830.359626599 361.218962428 833.997227903 301.580613969 833.997227903 c 0
 291.702150961 833.997227903 281.50096595 833.897425123 271.14117767 833.897425123 c 0
 270.387654267 833.897425123 269.633291783 833.897953124 268.878153372 833.899085934 c 2
 64.9634190962 833.899085934 l 1
 183.036580904 1022.10097799 l 1
 387.121846628 1022.10097799 l 2
 477.401385679 1021.96554647 534 1022 573.100631516 973.264655582 c 0
 588.712420701 953.805994855 597.308197026 931.127948848 597.308197026 897.395954328 c 0
 597.308197026 873.728797983 593.211092813 858.313430101 587.501513633 836.292870356 c 0
 551.612579949 697.103908148 531.307112 597.785598806 531.307112 461.542738326 c 0
 531.307112 329.213593683 564.93431565 228.893281436 641.378667961 176.222824383 c 0
 669.323949208 158.536755898 697.219823519 150.110362481 723.046186738 150.110362481 c 0
 761 150.110362481 790.106623119 167.736018662 823.372304869 200.691978307 c 0
 886.40196232 264.21571485 953 348 1019.16135828 452.798502992 c 2
 1363.99609375 998.106445312 l 2
 1417.22265625 1080.85351562 1474.53015549 1157.41875697 1554.15529794 1212.77568944 c 0
 1636.98700938 1270.36189043 1713.34628249 1291.30242481 1781.25284106 1291.30242481 c 0
 1916.17769639 1291.30242481 2008.61766371 1212.79807917 2050.93685154 1115.84704247 c 1
 1869.06314846 964.152957529 l 1
EndSplineSet
EndChar

StartChar: uni170C
Encoding: 5900 5900 16
GlifName: uni170C_
Width: 2130
GlyphClass: 2
Flags: HMW
AnchorPoint: "Anchor1" 1166 0 basechar 0
AnchorPoint: "Anchor0" 1040 1386 basechar 0
AnchorPoint: "Anchor-1" 1166 0 basechar 0
AnchorPoint: "Anchor-0" 1040 1386 basechar 0
LayerCount: 2
Back
SplineSet
114 812 m 5
 358 812 l 6
 363.091796875 812 370.73046875 812.056640625 380.915039062 812.170898438 c 4
 398.44921875 812.3671875 411.598632812 812.369140625 420.36328125 812.176757812 c 4
 446.102539062 811.091796875 466.415039062 807.393554688 481.299804688 801.08203125 c 4
 491.584960938 795.846679688 500.114257812 790.010742188 506.889648438 783.576171875 c 4
 514.3046875 775.18359375 519.887695312 766.504882812 523.637695312 757.541015625 c 4
 526.965820312 747.49609375 528.76171875 737.315429688 529.026367188 727 c 4
 528.862304688 718.517578125 527.853515625 708.184570312 526 696 c 6
 502 540 l 6
 487.991210938 447.999023438 480.236328125 385.952148438 478.734375 353.860351562 c 4
 476.215820312 280.2734375 487.971679688 219.653320312 514 172 c 4
 533.487304688 138.819335938 557.97265625 112.514648438 587.458984375 93.0869140625 c 4
 619.091796875 73.6630859375 653.271484375 62.6337890625 690 60 c 4
 743.540039062 57.45703125 798.20703125 72.1240234375 854 104 c 4
 929.865234375 148.669921875 1013.01660156 228.594726562 1103.45410156 343.774414062 c 4
 1161.015625 417.500976562 1225.86425781 513.576171875 1298 632 c 6
 1522 1000 l 6
 1566.63085938 1072.01855469 1608.44433594 1122.24804688 1647.43847656 1150.69042969 c 4
 1705.90234375 1191.31152344 1768.08984375 1207.74804688 1834 1200 c 4
 1897.6328125 1190.828125 1948.04492188 1162.75683594 1985.23828125 1115.78417969 c 4
 2023.49121094 1064.50488281 2035.74511719 1008.57714844 2022 948 c 4
 2013.79394531 916.548828125 1999.4921875 888.4296875 1979.09570312 863.642578125 c 4
 1957.91308594 839.4921875 1932.9765625 820.060546875 1904.28710938 805.349609375 c 4
 1848.34863281 778.263671875 1786.25292969 769.814453125 1718 780 c 4
 1681.43554688 786.06640625 1646.76855469 796.732421875 1614 812 c 1028
EndSplineSet
Fore
SplineSet
434.898048532 667.735556563 m 0
 432.764213929 710.342888455 395.095574438 718.216094439 345.055459302 718.216094439 c 0
 333.77678091 718.216094439 309.021585325 717.899022009 298.963419096 717.899022009 c 2
 54.9634190962 717.899022009 l 1
 173.036580904 906.100977991 l 1
 417.036580904 906.100977991 l 2
 426.838753562 906.100977991 452.152995786 906.423096189 463.193293911 906.423096189 c 0
 556.991967407 906.423096189 620.81400994 876.923768634 623.109216271 787.461538263 c 1
 623.116432423 784.915053554 l 2
 622.879899377 772.685731904 621.49011745 759.39421007 619.283275281 744.886955213 c 2
 595.301520462 589.006160071 l 2
 579.430684502 484.776421127 572.500681047 440.112129962 572.500681047 393.652121705 c 0
 572.500681047 262.439338779 634.752381163 153.807615336 761.360467122 153.807615336 c 0
 799.291437781 153.807615336 830.992437176 164.553729561 859.478516578 180.651982166 c 0
 924.368002802 219.280703927 986.943160401 290.744497134 1043.11336451 362.254387281 c 0
 1096.80999705 431.063643357 1156.02844787 520.241559845 1215.46522793 614.999993054 c 2
 1448.21001044 999.278856657 l 2
 1500.27016743 1083.28569218 1559.20189685 1161.63028287 1639.17681199 1218.57722438 c 0
 1720.64658085 1275.18297555 1795.46098097 1295.94680723 1861.80384289 1295.94680723 c 0
 2007.20250466 1295.94680723 2121.66001735 1197.54507012 2121.66001735 1054.66482947 c 0
 2121.66001735 1033.90726419 2118.91871214 1010.50655144 2113.42988987 988.016735726 c 0
 2099.52621627 934.728420625 2057.24658194 859.696526108 2008.27936856 810.729312722 c 0
 1934.61987045 737.069814612 1845.95045459 681.685134786 1713.56200156 681.685134786 c 0
 1643.44013363 681.685134786 1588.55986003 697.566929312 1537.44182552 721.383926822 c 1
 1690.55817448 902.616073178 l 1
 1732.42143781 883.111073649 1775.9434209 869.963990401 1831.59504503 869.963990401 c 0
 1890.86336799 869.963990401 1933.24281778 875.156652702 1933.24281778 935.452092272 c 0
 1933.24281778 1031.00309618 1844.03521605 1107.77669136 1743.4210691 1107.77669136 c 0
 1702.31028928 1107.77669136 1670.02627783 1096.36331815 1654.90513966 1081.24217998 c 0
 1645.82616007 1072.16320039 1622.94050287 1044.44337996 1596.17856445 1001.34752398 c 2
 1372.6038657 634.046233182 l 2
 1255.43508214 441.69254738 1167.24319703 309.830387636 1028.38284688 170.96999104 c 0
 934.873341914 77.4604547898 798.086375939 -34.3718355598 642.428406582 -34.3718355598 c 0
 537.007338867 -34.3718355598 464.152110868 23.2875141562 424.273572693 93.6805490588 c 0
 397.479735784 142.735396906 384.301500257 203.740518488 384.301500257 275.722723655 c 0
 384.301500257 358.564179922 416.88673276 544.217694232 432.716724719 647.113044787 c 0
 434.081245832 656.083081785 434.724027179 662.995273298 434.898048532 667.735556563 c 0
EndSplineSet
EndChar

StartChar: uni170E
Encoding: 5902 5902 17
GlifName: uni170E_
Width: 1826
GlyphClass: 2
Flags: HMW
AnchorPoint: "Anchor1" 1014 -98 basechar 0
AnchorPoint: "Anchor0" 976 1386 basechar 0
AnchorPoint: "Anchor-1" 1014 -98 basechar 0
AnchorPoint: "Anchor-0" 976 1386 basechar 0
LayerCount: 2
Back
SplineSet
100 1064 m 4
 188.059570312 969.827148438 298.986328125 919.309570312 432.782226562 912.447265625 c 0
 437.189453125 912.249023438 440.928710938 912.099609375 444 912 c 0
 561.059570312 909.356445312 703.640625 951.721679688 871.744140625 1039.09667969 c 0
 1021.70214844 1117.1796875 1128.96289062 1166.06152344 1193.52636719 1185.74414062 c 0
 1226.49023438 1195.60253906 1257.98144531 1203.02148438 1288 1208 c 0
 1442.10644531 1233.05273438 1580.91699219 1204.63183594 1704.43066406 1122.73730469 c 0
 1710.33691406 1118.75390625 1715.52734375 1115.17480469 1720 1112 c 1
 1630.82324219 1168.52539062 1533.49023438 1200.52539062 1428 1208 c 0
 1277.48242188 1217.2890625 1142.81542969 1182.62304688 1024 1104 c 0
 969.215820312 1066.49609375 927.610351562 1024.37207031 899.184570312 977.62890625 c 0
 865.697265625 919.654296875 853.96875 862.4453125 864 806 c 0
 876.125976562 741.6796875 911.4609375 694.2578125 970.00390625 663.734375 c 0
 974.642578125 661.421875 978.641601562 659.510742188 982 658 c 0
 993.161132812 653.017578125 999.434570312 650.170898438 1000.81933594 649.461914062 c 0
 1007.72753906 645.083007812 1013.14746094 640.884765625 1017.078125 636.865234375 c 0
 1021.66992188 630.669921875 1024.90917969 624.65625 1026.79589844 618.827148438 c 0
 1028.14257812 611.506835938 1028.30957031 604.677734375 1027.29882812 598.341796875 c 0
 1023.74902344 585.676757812 1016.53417969 574.211914062 1005.65527344 563.946289062 c 0
 998.080078125 557.505859375 986.861328125 549.5234375 972 540 c 2
 916 504 l 2
 901.66015625 494.286132812 891.6953125 486.53125 886.103515625 480.735351562 c 0
 877.1875 469.482421875 872.169921875 458.125 871.053710938 446.662109375 c 0
 871.439453125 433.342773438 875.771484375 421.80078125 884.05078125 412.036132812 c 0
 891.607421875 404.819335938 902.256835938 398.140625 916 392 c 2
 1016 348 l 2
 1026.95996094 342.909179688 1034.85253906 338.83203125 1039.67773438 335.770507812 c 0
 1047.75195312 329.466796875 1053.98828125 323.212890625 1058.38769531 317.008789062 c 0
 1062.99511719 308.54296875 1065.77246094 300.186523438 1066.71875 291.938476562 c 0
 1066.83007812 282.58203125 1065.41796875 273.876953125 1062.48339844 265.82421875 c 0
 1055.64941406 251.274414062 1044.2734375 237.893554688 1028.35449219 225.680664062 c 0
 1022.55761719 221.368164062 1013.58398438 215.296875 1001.43554688 207.465820312 c 0
 993.212890625 202.120117188 987.401367188 198.297851562 984 196 c 0
 950.942382812 172.95703125 920.942382812 147.624023438 894 120 c 0
 863.130859375 87.5263671875 836.46484375 52.859375 814 16 c 1024
EndSplineSet
Fore
SplineSet
185.506863416 1148.17646306 m 1
 269.320749584 1058.54404 378.859680062 1005.98241969 513.597845736 1005.98241969 c 0
 614.473215262 1005.98241969 735.72675171 1042.41292337 884.294609946 1119.63389382 c 0
 1038.38575488 1199.86902263 1149.57771563 1251.89646742 1230.00616632 1276.18309946 c 0
 1298.5751006 1296.68979156 1371.38482442 1310.90935784 1452.83123091 1310.90935784 c 0
 1582.89138308 1310.90935784 1702.29217401 1270.13866127 1801.23701737 1199.90510559 c 1
 1640.0181473 1023.25262084 l 1
 1543.11952349 1084.67257696 1446.99243295 1115.34833058 1322.34736079 1115.34833058 c 0
 1184.9238338 1115.34833058 1063.07468689 1074.34002519 994.19312183 1005.45846181 c 0
 971.258746341 982.524088052 954.574850806 949.619628255 954.574850806 904.564313634 c 0
 954.574850806 824.604877947 1000.19649321 774.872425789 1058.09073816 748.829274593 c 0
 1093.79027895 732.892704717 1122.10803339 715.782461943 1122.10803339 665.976626551 c 0
 1122.10803339 634.063832186 1113.10430252 615.99402352 1098.5754097 590.32183859 c 0
 1075.36038634 549.301481421 1034.09243984 508.415366644 994.848618183 481.616309858 c 1
 1004.70691875 477.526568605 1015.35398815 472.592439136 1023 469.227631646 c 2
 1092.52449454 438.631741313 l 2
 1128.2556749 422.034873885 1160.82765701 400.157727192 1160.82765701 349.662470399 c 0
 1160.82765701 284.628152638 1122.01070823 236.21584509 1083.07395999 197.27909721 c 0
 1057.87402128 172.079158734 1033.55041907 154.808938254 1004.04725344 135.786986814 c 0
 953.51146522 102.921444782 919.223419208 68.2854546741 888.546824923 17.9525832295 c 1
 739.453175077 14.0474167705 l 1
 793.399479309 102.56025397 871.509016062 187.245629663 955.553024526 249.398060019 c 1
 951.908739366 251.368968751 946.510591992 254.094339995 939.763514759 257.234351647 c 2
 840.066385664 301.101088449 l 2
 805.788135647 316.417057765 776.975695218 338.564367974 776.975695218 386.13104821 c 0
 776.975695218 469.978006196 851.015326479 532.601637899 902.87571688 568.559036683 c 1
 886.925604093 575.974437449 871.819155754 584.764933428 857.873512776 595 c 0
 803.288955926 635.061012179 766.488089826 697.253035784 766.488089826 785.742122785 c 0
 766.488089826 829.290856307 776.608507495 877.249333994 800.305629227 929.200401894 c 1
 646.646203737 855.944281711 509.975374856 817.784596603 395.167129576 817.784596603 c 0
 234.810681711 817.784596603 108.5524032 879.234477491 14.4931365836 979.823536939 c 1
 185.506863416 1148.17646306 l 1
EndSplineSet
EndChar

StartChar: uni170F
Encoding: 5903 5903 18
GlifName: uni170F_
Width: 1522
GlyphClass: 2
Flags: HMW
AnchorPoint: "Anchor1" 907 -173 basechar 0
AnchorPoint: "Anchor0" 1133 1587 basechar 0
AnchorPoint: "Anchor-1" 914 -60 basechar 0
AnchorPoint: "Anchor-0" 1074 1484 basechar 0
LayerCount: 2
Back
SplineSet
116 816 m 1
 372 816 l 2
 401.286132812 815.791015625 422.40234375 814.696289062 435.346679688 812.716796875 c 128
 459.142578125 808.095703125 478.440429688 800.012695312 493.241210938 788.46875 c 128
 509.891601562 773.530273438 520.383789062 755.662109375 524.716796875 734.864257812 c 128
 527.153320312 718.413085938 525.581054688 697.458007812 520 672 c 2
 496 564 l 2
 474.251953125 465.208007812 462.0234375 396.981445312 459.315429688 359.319335938 c 128
 454.642578125 278.647460938 469.537109375 212.208007812 504 160 c 0
 543.209960938 103.883789062 597.063476562 70.1728515625 665.559570312 58.8662109375 c 128
 726.977539062 50.15625 790.458007812 61.201171875 856 92 c 0
 931.508789062 128.713867188 1004.59667969 188.309570312 1075.26171875 270.786132812 c 128
 1134.96582031 341.37109375 1187.21191406 420.442382812 1232 508 c 0
 1296.63476562 636.026367188 1335.30175781 762.693359375 1348 888 c 0
 1354.13085938 954.4609375 1351.40429688 1011.68359375 1339.81835938 1059.66601562 c 128
 1324.14160156 1119.57519531 1296.20214844 1169.02050781 1256 1208 c 0
 1223.15722656 1238.3515625 1185.41308594 1260.40625 1142.765625 1274.16503906 c 128
 1101.06054688 1286.73632812 1057.47167969 1291.34863281 1012 1288 c 0
 892.708007812 1278.58300781 790.890625 1225.67480469 706.546875 1129.27441406 c 0
 704.455078125 1126.85058594 702.938476562 1125.09277344 702 1124 c 1024
EndSplineSet
Fore
SplineSet
648.772781578 1151.13290796 m 1
 754.714791665 1273.81081943 906.426252509 1383.13592268 1099.28338313 1383.13592268 c 0
 1282.54844766 1383.13592268 1395.51577056 1277.51819811 1432.69628999 1129.68535496 c 0
 1441.1425142 1094.7058556 1445.28339547 1055.6578556 1445.28339547 1012.71715646 c 0
 1445.28339547 989.839088338 1444.18581737 965.648369144 1441.76861689 940.678597476 c 0
 1411.96741665 646.599445984 1243.82396673 353.895961296 1066.04559718 176.117591745 c 0
 994.224258858 104.296253424 915.557044776 45.8335714969 837.550901247 8.54043338869 c 0
 768.882527235 -23.7275123697 705.339676431 -38.0909165871 647.227823889 -38.0909165871 c 0
 466.130664524 -38.0909165871 364.382596873 90.2698990718 364.382596873 272.143338151 c 0
 364.382596873 350.08757481 376.957155771 398.882876089 403.712661262 520.421591939 c 2
 427.751678832 628.59799709 l 2
 430.616116078 641.664141326 431.727384955 651.79294567 431.727384955 659.553399237 c 0
 431.727384955 714.012553808 375.124269582 721.442427374 312.758672361 721.899022009 c 2
 56.9634190962 721.899022009 l 1
 175.036580904 910.100977991 l 1
 431.439997426 910.100977991 l 2
 539.760582565 909.328007728 619.927624797 882.867977608 619.927624797 777.681265513 c 0
 619.927624797 758.717060768 617.15079998 737.764683608 612.248321168 715.40200291 c 2
 588.287338738 607.578408061 l 2
 562.963428918 492.542813224 552.574325078 448.246990436 552.574325078 389.916376243 c 0
 552.574325078 252.685465276 630.79649786 150.062842946 765.730737508 150.062842946 c 0
 875 150.062842946 959.328916929 224.871213084 1021.05924257 296.783038785 c 0
 1128.6838469 424.241018478 1233.97087185 636.110274055 1254.19973028 835.009615409 c 0
 1256.12910233 856.017359924 1257.08185658 875.887649327 1257.08185658 894.646003595 c 0
 1257.08185658 1047.73991263 1185.47151796 1144.65453346 1070.38900862 1181.93564906 c 0
 1040.94559076 1190.77550974 1011.38106658 1194.97696717 981.600076603 1194.97696717 c 0
 873.199811988 1194.97696717 803.836480979 1153.25425418 755.227218422 1096.86709204 c 1
 648.772781578 1151.13290796 l 1
EndSplineSet
EndChar

StartChar: uni1710
Encoding: 5904 5904 19
GlifName: uni1710
Width: 1844
GlyphClass: 2
Flags: HMW
AnchorPoint: "Anchor1" 1218 -158 basechar 0
AnchorPoint: "Anchor0" 987 1467 basechar 0
AnchorPoint: "Anchor-1" 1218 -158 basechar 0
AnchorPoint: "Anchor-0" 976 1386 basechar 0
LayerCount: 2
Back
SplineSet
907.884765625 127.897460938 m 4
 1014.32910156 86.703125 1131.70703125 62.12890625 1243.96191406 62.12890625 c 4
 1354.77929688 62.12890625 1460.60351562 86.078125 1545.98535156 141.630859375 c 4
 1624.25683594 194.3046875 1697.29882812 281.341796875 1697.29882812 406.0859375 c 4
 1697.29882812 512.962890625 1639.65722656 592.37109375 1570.8515625 640.259765625 c 4
 1491.64941406 692.547851562 1418.86035156 702.704101562 1279.88476562 703.176757812 c 6
 1219.88476562 703.176757812 l 5
 1294.54492188 703.23046875 1354.34375 708.853515625 1399.28125 720.045898438 c 4
 1519.87792969 751.646484375 1638.06640625 831.958984375 1655.88476562 968.376953125 c 4
 1656.71191406 976.448242188 1657.10742188 984.30859375 1657.10742188 991.9609375 c 4
 1657.10742188 1153.109375 1500.46582031 1231.01171875 1356.92675781 1231.01171875 c 4
 1140 1231.01171875 980.354577097 1016.14939436 864 812 c 6
 424 40 l 5
 424 1200 l 5
 40 1200 l 1029
EndSplineSet
Fore
SplineSet
1562.00683594 952.924804688 m 0
 1562.00683594 1087.23535156 1461.23535156 1146.91113281 1337.890625 1146.91113281 c 0
 1214 1146.91113281 1156.01910829 1100.1233439 1105.84296949 1049.9472051 c 0
 1044.0984006 988.202636206 989.044463559 901.992777592 941.34535547 818.6980531 c 2
 462 -18.3603515625 l 1
 329.899414062 -18.3603515625 l 1
 329.899022009 1105.89902201 l 1
 -19.0365809038 1105.89902201 l 1
 99.0365809038 1294.10097799 l 1
 518.1 1294.10097799 l 1
 518.100977991 334.112331973 l 1
 786.65464453 805.3019469 l 2
 892.640344331 991.258674734 1035.08301994 1192.84149741 1237.09465975 1284.25617216 c 0
 1298.08941756 1311.85763093 1357.80501053 1325.11269674 1415.96333872 1325.11269674 c 0
 1583.9651039 1325.11269674 1751.20839987 1234.76077503 1751.20839987 1050.9975184 c 0
 1751.20839987 996.509303728 1739.64151613 959.026067672 1717.70376936 912.309162944 c 0
 1692.30838975 858.229154512 1647.7958193 800.6039019 1599.87574989 757.510382043 c 1
 1703.64585691 709.650251301 1791.39980612 613.659932823 1791.39980612 465.122518404 c 0
 1791.39980612 215.365550353 1577.25424879 50.6228286336 1383.88579915 -5.12183242616 c 0
 1317.12107673 -24.3689062318 1251.06277218 -31.9720717409 1184.92533316 -31.9720717409 c 0
 1064.64556036 -31.9720717409 943.311345613 -6.13401064496 833.323122201 36.4318223274 c 1
 982.446409049 219.363099548 l 1
 1085.34685751 179.540260645 1198.76850214 156.229884241 1302.99849497 156.229884241 c 0
 1460.70178141 156.229884241 1603.19785013 190.861801491 1603.19785013 347.049356596 c 0
 1603.19785013 475.582827425 1502.15353957 568.495947558 1392.6412457 594.984533148 c 0
 1349.09238897 605.518031974 1296.73464301 608.817689823 1220.84818472 609.075779822 c 2
 1160.84818472 609.075779822 l 1
 1278.88036946 797.27772106 l 1
 1434.87633522 797.389945572 1562.00683594 846 1562.00683594 952.924804688 c 0
EndSplineSet
EndChar

StartChar: uni1711
Encoding: 5905 5905 20
GlifName: uni1711
Width: 2098
GlyphClass: 2
Flags: HMW
AnchorPoint: "Anchor1" 1014 0 basechar 0
AnchorPoint: "Anchor0" 1064 1386 basechar 0
AnchorPoint: "Anchor-1" 1014 0 basechar 0
AnchorPoint: "Anchor-0" 1064 1386 basechar 0
LayerCount: 2
Back
SplineSet
140 706 m 0
 267.891601562 594.35546875 422.5078125 538.211914062 603.848632812 537.5703125 c 0
 613.908203125 537.583007812 623.291992188 537.7265625 632 538 c 0
 730.284179688 541.354492188 871.943359375 572.362304688 1056.97851562 631.022460938 c 2
 1058.97851562 631.657226562 l 1
 1062.85839844 632.887695312 l 1
 1064.859375 633.521484375 l 1
 1066.859375 634.155273438 l 1
 1068.953125 634.819335938 l 2
 1253.36425781 692.815429688 1399.71386719 720.54296875 1508 718 c 0
 1677.74804688 713.54296875 1822.25878906 656.770507812 1941.53027344 547.684570312 c 0
 1947.07519531 542.536132812 1951.89746094 537.974609375 1956 534 c 1024
EndSplineSet
Fore
SplineSet
1871.46405456 448.835295802 m 5
 1755.65090242 561.03704048 1608.21788298 624.060902334 1435.13943422 624.060902334 c 4
 1337.51216857 624.060902334 1190.72906455 594.595818768 1022.26559666 541.128165665 c 4
 815.575783543 475.603013694 682.071050659 443.642511833 544.883973057 443.46937991 c 4
 351.885300782 444.152228093 189.320853015 503.933280042 56.5347998481 619.850482433 c 5
 223.465200152 792.149517567 l 5
 346.462350109 684.777657458 493.130324214 632.271600031 662.813292567 631.67124509 c 4
 777.436213111 631.815900745 909.902363621 663.287022675 1103.94769128 724.802614601 c 4
 1286.55270131 782.230694564 1436.5114153 812.259592651 1553.16312368 812.259592651 c 4
 1751.41990331 812.259592651 1914.46200947 741.307270159 2040.53594544 619.1647042 c 5
 1871.46405456 448.835295802 l 5
EndSplineSet
EndChar

StartChar: uni1712
Encoding: 5906 5906 21
GlifName: uni1712
Width: 0
VWidth: 0
GlyphClass: 4
Flags: HMW
AnchorPoint: "Mkmk" -590 1560 mark 0
AnchorPoint: "Mkmk" -74 1560 basemark 0
AnchorPoint: "Anchor0" -342 1386 mark 0
AnchorPoint: "Anchor-0" -342 1386 mark 0
LayerCount: 2
Fore
SplineSet
-557 1555 m 256
 -557 1677 -457 1777 -335 1777 c 256
 -213 1777 -113 1677 -113 1555 c 256
 -113 1433 -213 1333 -335 1333 c 256
 -457 1333 -557 1433 -557 1555 c 256
EndSplineSet
EndChar

StartChar: uni1713
Encoding: 5907 5907 22
GlifName: uni1713
Width: 0
VWidth: 0
GlyphClass: 4
Flags: HMW
AnchorPoint: "Mkmk" 30 -200 basemark 0
AnchorPoint: "Mkmk" -446 -200 mark 0
AnchorPoint: "Anchor1" -196 0 mark 0
AnchorPoint: "Anchor-1" -196 0 mark 0
LayerCount: 2
Fore
SplineSet
-418 -198 m 256
 -418 -76 -318 24 -196 24 c 256
 -74 24 26 -76 26 -198 c 256
 26 -320 -74 -420 -196 -420 c 256
 -318 -420 -418 -320 -418 -198 c 256
EndSplineSet
EndChar

StartChar: uni1714
Encoding: 5908 5908 23
GlifName: uni1714
Width: 0
VWidth: 0
GlyphClass: 4
Flags: HMW
AnchorPoint: "Anchor1" -514 -5 mark 0
LayerCount: 2
Fore
SplineSet
-624 -555 m 257
 -614 -380 l 257
 -792 -390 l 257
 -792 -192 l 257
 -614 -202 l 257
 -624 -23 l 257
 -426 -23 l 257
 -436 -202 l 257
 -261 -192 l 257
 -261 -390 l 257
 -436 -380 l 257
 -426 -555 l 257
 -624 -555 l 257
EndSplineSet
EndChar

StartChar: uni1735
Encoding: 5941 5941 24
GlifName: uni1735
Width: 658
GlyphClass: 2
Flags: HMW
LayerCount: 2
Back
SplineSet
108 -276 m 29
 512 1500 l 1053
EndSplineSet
Fore
SplineSet
200.147630202 -233.045803992 m 1
 15.8523697977 -318.954196008 l 1
 419.852369798 1457.04580399 l 1
 604.147630202 1542.95419601 l 1
 200.147630202 -233.045803992 l 1
EndSplineSet
EndChar

StartChar: uni1736
Encoding: 5942 5942 25
GlifName: uni1736
Width: 976
GlyphClass: 2
Flags: HMW
LayerCount: 2
Back
SplineSet
428 -276 m 25
 832 1500 l 1049
108 -276 m 25
 512 1500 l 1049
EndSplineSet
Fore
SplineSet
520.147630202 -233.045803992 m 1
 335.852369798 -318.954196008 l 1
 739.852369798 1457.04580399 l 1
 924.147630202 1542.95419601 l 1
 520.147630202 -233.045803992 l 1
200.147630202 -233.045803992 m 1
 15.8523697977 -318.954196008 l 1
 419.852369798 1457.04580399 l 1
 604.147630202 1542.95419601 l 1
 200.147630202 -233.045803992 l 1
EndSplineSet
EndChar

StartChar: uni25CC
Encoding: 9676 9676 29
GlifName: uni25C_C_
Width: 1188
VWidth: 0
GlyphClass: 2
Flags: HMW
AnchorPoint: "Anchor1" 590 0 basechar 0
AnchorPoint: "Anchor0" 600 1180 basechar 0
AnchorPoint: "Anchor-1" 590 0 basechar 0
AnchorPoint: "Anchor-0" 600 1180 basechar 0
LayerCount: 2
Fore
SplineSet
646 1028 m 256
 646 992 629 974 594 974 c 256
 559 974 542 992 542 1028 c 256
 542 1063 559 1080 594 1080 c 256
 629 1080 646 1063 646 1028 c 256
816 992 m 256
 816 957 799 940 766 940 c 256
 729 940 710 957 710 992 c 256
 710 1028 729 1046 766 1046 c 256
 799 1046 816 1028 816 992 c 256
478 992 m 256
 478 957 460 940 424 940 c 256
 389 940 372 957 372 992 c 256
 372 1028 389 1046 424 1046 c 256
 460 1046 478 1028 478 992 c 256
960 896 m 256
 960 861 943 844 910 844 c 256
 874 844 856 861 856 896 c 256
 856 932 874 950 910 950 c 256
 943 950 960 932 960 896 c 256
334 896 m 256
 334 861 316 844 280 844 c 256
 245 844 228 861 228 894 c 256
 228 931 245 950 280 950 c 256
 316 950 334 932 334 896 c 256
1058 752 m 256
 1058 716 1040 698 1004 698 c 256
 969 698 952 716 952 752 c 256
 952 787 970 804 1006 804 c 256
 1041 804 1058 787 1058 752 c 256
236 752 m 256
 236 716 219 698 186 698 c 256
 149 698 130 716 130 752 c 256
 130 787 148 804 184 804 c 256
 219 804 236 787 236 752 c 256
1092 582 m 256
 1092 547 1075 530 1042 530 c 256
 1006 530 988 547 988 582 c 256
 988 617 1006 634 1042 634 c 256
 1075 634 1092 617 1092 582 c 256
202 582 m 256
 202 547 185 530 150 530 c 256
 114 530 96 547 96 582 c 256
 96 617 114 634 150 634 c 256
 185 634 202 617 202 582 c 256
1058 412 m 256
 1058 377 1040 360 1004 360 c 256
 969 360 952 377 952 412 c 256
 952 448 969 466 1004 466 c 256
 1040 466 1058 448 1058 412 c 256
236 412 m 256
 236 377 219 360 184 360 c 256
 148 360 130 377 130 412 c 256
 130 448 148 466 184 466 c 256
 219 466 236 448 236 412 c 256
960 266 m 256
 960 231 943 214 910 214 c 256
 874 214 856 231 856 266 c 256
 856 302 874 320 910 320 c 256
 943 320 960 302 960 266 c 256
334 266 m 256
 334 231 316 214 280 214 c 256
 245 214 228 231 228 266 c 256
 228 302 245 320 280 320 c 256
 316 320 334 302 334 266 c 256
816 170 m 256
 816 137 799 120 766 120 c 256
 729 120 710 137 710 170 c 256
 710 206 729 224 766 224 c 256
 799 224 816 206 816 170 c 256
478 174 m 256
 478 138 460 120 424 120 c 256
 389 120 372 137 372 170 c 256
 372 206 389 224 424 224 c 256
 460 224 478 207 478 174 c 256
646 138 m 256
 646 102 629 84 594 84 c 256
 559 84 542 102 542 138 c 256
 542 173 559 190 594 190 c 256
 629 190 646 173 646 138 c 256
EndSplineSet
EndChar

StartChar: uni170D
Encoding: 5901 5901 30
GlifName: uni170D_
Width: 2150
GlyphClass: 2
Flags: HMW
AnchorPoint: "Anchor1" 813 -67 basechar 0
AnchorPoint: "Anchor0" 1054 1386 basechar 0
AnchorPoint: "Anchor-1" 964 0 basechar 0
AnchorPoint: "Anchor-0" 1054 1386 basechar 0
LayerCount: 2
Back
SplineSet
1474 388 m 4
 1441.12011719 309.045898438 1399.78613281 235.711914062 1350 168 c 4
 1291.95214844 90.28515625 1225.28515625 22.28515625 1150 -36 c 1028
506 918 m 5
 474 886 l 6
 406.801757812 818.205078125 360.543945312 763.393554688 335.225585938 721.568359375 c 4
 295.190429688 652.998046875 277.448242188 584.475585938 282 516 c 4
 289.700195312 427.359375 329.1328125 355.033203125 400.296875 299.021484375 c 4
 464.841796875 250.083007812 544.076171875 223.7421875 638 220 c 4
 727.6875 216.799804688 853.54296875 241.62890625 1015.56738281 294.486328125 c 6
 1017.56933594 295.139648438 l 5
 1019.5703125 295.79296875 l 5
 1021.57128906 296.446289062 l 5
 1023.57226562 297.100585938 l 5
 1025.57324219 297.75390625 l 5
 1027.57324219 298.408203125 l 5
 1029.57421875 299.0625 l 5
 1033.18945312 300.245117188 l 6
 1045.34667969 304.217773438 1054.12597656 307.083984375 1059.52929688 308.842773438 c 4
 1234.14160156 365.2109375 1374.96484375 394.262695312 1482 396 c 4
 1667.30371094 398.5390625 1827.98339844 343.985351562 1964.03808594 232.338867188 c 4
 1968.04101562 229.014648438 1971.36132812 226.235351562 1974 224 c 1028
162 1080 m 4
 291.310546875 969.6875 446.37109375 914.9765625 627.181640625 915.868164062 c 4
 631.455078125 915.907226562 635.061523438 915.951171875 638 916 c 4
 740.006835938 918.362304688 880.723632812 947.389648438 1060.14941406 1003.08300781 c 4
 1242.76367188 1059.40722656 1383.37988281 1089.04589844 1482 1092 c 4
 1662.984375 1096.96582031 1819.81640625 1045.70898438 1952.49707031 938.229492188 c 4
 1960.44628906 931.693359375 1967.61425781 925.6171875 1974 920 c 1028
EndSplineSet
Fore
SplineSet
1890.85058594 137.579101562 m 1
 1762.74414062 246.104492188 1608.61328125 301.983398438 1435.30273438 301.983398438 c 0
 1327.29101562 301.983398438 1200.46679688 275.638671875 1025.52441406 219.17578125 c 0
 1010.92773438 214.409179688 996.333007812 209.639648438 981.734375 204.875 c 0
 823.094726562 153.122070312 694.069335938 125.619140625 594.985351562 125.619140625 c 0
 371.909179688 125.619140625 187.217773438 255.862304688 187.217773438 477.53515625 c 0
 187.217773438 664.888671875 326.172851562 819.015625 433.341796875 926.658203125 c 2
 465.341796875 958.658203125 l 1
 546.658203125 877.341796875 l 1
 515.069335938 845.751953125 l 2
 468.9140625 799.162109375 437.502929688 768.23046875 410.765625 725.145507812 c 0
 389.522460938 688.301757812 375.387695312 646.0859375 375.387695312 596.416015625 c 0
 375.387695312 421.453125 534.76171875 313.83203125 712.450195312 313.83203125 c 0
 793.823242188 313.83203125 954.870117188 353.270507812 1093.70898438 398.56640625 c 0
 1281.08203125 459.053710938 1425.17089844 490.185546875 1553.34765625 490.185546875 c 0
 1750.22070312 490.185546875 1919.26367188 427.23046875 2057.14941406 310.420898438 c 1
 1890.85058594 137.579101562 l 1
1890.45507812 833.919921875 m 1
 1769.61425781 940.217773438 1616.01074219 998.228515625 1446.83886719 998.228515625 c 0
 1335.74316406 998.228515625 1216.36132812 972.072265625 1024.56738281 912.916992188 c 0
 830.978515625 852.827148438 691.1328125 821.7578125 564.04296875 821.7578125 c 0
 373.397460938 821.7578125 211.915039062 880.063476562 78.77734375 993.641601562 c 1
 245.22265625 1166.35839844 l 1
 368.631835938 1061.08007812 514.375 1009.95703125 681.631835938 1009.95703125 c 0
 787.6015625 1009.95703125 913.16796875 1036.58203125 1095.73144531 1093.24902344 c 0
 1297.19726562 1155.38769531 1432.46484375 1186.4296875 1564.83398438 1186.4296875 c 0
 1758.21289062 1186.4296875 1926.54199219 1121.31640625 2057.54492188 1006.08007812 c 1
 1890.45507812 833.919921875 l 1
1132.50976562 25.111328125 m 1
 1244.60545777 111.893665865 1328.52263713 221.01779305 1387.88671875 363.564453125 c 1
 1560.11328125 412.435546875 l 1
 1475.33714975 208.861415672 1333.5969114 31.4877312003 1167.49023438 -97.111328125 c 1
 1132.50976562 25.111328125 l 1
EndSplineSet
EndChar

StartChar: uni1734
Encoding: 5940 5940 31
GlifName: uni1734
Width: 196
VWidth: 1000
GlyphClass: 2
Flags: HMW
LayerCount: 2
Back
SplineSet
-562 -600 m 5
 -518 -600 l 6
 -454.788085938 -600 -391.080078125 -599.069335938 -329.306640625 -585.663085938 c 4
 -267.532226562 -572.255859375 -208.2265625 -546.379882812 -158 -508 c 4
 -106.732421875 -468.825195312 -65.45703125 -417.310546875 -35.26171875 -360.291015625 c 4
 -5.06640625 -303.270507812 14.4296875 -241.115234375 28.5 -178.146484375 c 4
 56.640625 -52.208984375 69.427734375 76.607421875 90 204 c 6
 142 526 l 1029
  Spiro
    -562 -600 {
    -518 -600 ]
    -158 -508 o
    90 204 [
    142 526 v
    0 0 z
  EndSpiro
EndSplineSet
Fore
SplineSet
-458.963867188 -505.899414062 m 2
 -283.634067767 -505.899414062 -173.17777607 -481.184153806 -115.250976562 -371.796875 c 4
 -43.6422885904 -236.575751463 -31.953400307 -22.4073296096 -3.19140625 155.6953125 c 2
 48.80859375 477.6953125 l 1
 235.19140625 574.3046875 l 1
 183.19140625 252.3046875 l 2
 148.072788026 34.8343189155 137.181129173 -174.194141205 44.7275390625 -348.78515625 c 0
 -67.6925634321 -561.07235148 -222 -694.100585938 -577.036132812 -694.100585938 c 2
 -621.036132812 -694.100585938 l 1
 -502.963867188 -505.899414062 l 1
 -458.963867188 -505.899414062 l 2
EndSplineSet
EndChar

StartChar: uni1712.hollow
Encoding: 65536 -1 32
GlifName: uni1712.hollow
Width: 0
VWidth: 0
GlyphClass: 4
Flags: HMW
AnchorPoint: "Mkmk" -74 1560 basemark 0
AnchorPoint: "Mkmk" -590 1560 mark 0
AnchorPoint: "Anchor0" -342 1386 mark 0
AnchorPoint: "Anchor-0" -342 1386 mark 0
LayerCount: 2
Fore
SplineSet
-424 1555 m 256
 -424 1506 -384 1467 -335 1467 c 256
 -286 1467 -246 1506 -246 1555 c 256
 -246 1604 -286 1644 -335 1644 c 256
 -384 1644 -424 1604 -424 1555 c 256
-557 1555 m 256
 -557 1677 -457 1777 -335 1777 c 256
 -213 1777 -113 1677 -113 1555 c 256
 -113 1433 -213 1333 -335 1333 c 256
 -457 1333 -557 1433 -557 1555 c 256
EndSplineSet
EndChar

StartChar: uni1713.hollow
Encoding: 65537 -1 33
GlifName: uni1713.hollow
Width: 0
VWidth: 0
GlyphClass: 4
Flags: HMW
AnchorPoint: "Mkmk" 30 -140 basemark 0
AnchorPoint: "Mkmk" -446 -140 mark 0
AnchorPoint: "Anchor1" -196 60 mark 0
AnchorPoint: "Anchor-1" -196 60 mark 0
LayerCount: 2
Fore
SplineSet
-285 -198 m 256
 -285 -247 -245 -287 -196 -287 c 256
 -147 -287 -107 -247 -107 -198 c 256
 -107 -149 -147 -109 -196 -109 c 256
 -245 -109 -285 -149 -285 -198 c 256
-418 -198 m 256
 -418 -76 -318 24 -196 24 c 256
 -74 24 26 -76 26 -198 c 256
 26 -320 -74 -420 -196 -420 c 256
 -318 -420 -418 -320 -418 -198 c 256
EndSplineSet
EndChar

StartChar: uni171F
Encoding: 5919 5919 34
GlifName: uni171F_
Width: 1618
VWidth: 0
GlyphClass: 2
Flags: HMW
AnchorPoint: "Anchor-1" 308 -210 basechar 0
AnchorPoint: "Anchor-0" 1202 1764 basechar 0
AnchorPoint: "Anchor0" 1280 1813 basechar 0
AnchorPoint: "Anchor1" 308 -210 basechar 0
LayerCount: 2
Back
SplineSet
110 219 m 29
 110 219 163.713057928 30 305 30 c 4
 443 30 478.052650467 143.922545046 491 183 c 6
 821 1179 l 6
 890.229750499 1387.94797423 1022 1505 1184 1505 c 4
 1373 1505 1463 1368 1463 1215 c 4
 1463 1053 1334 921 1133 921 c 5
 1270.95530322 921.00000003 1403 801 1403 651 c 4
 1403 462 1151.64578397 398.919887377 956 399 c 5
 1169 399 1367 261 1367 39 c 4
 1367 -204 956 -297 722 -153 c 1028
EndSplineSet
Fore
SplineSet
1399 1214 m 0
 1399 1306 1323 1425.64648438 1185.23339844 1425.64648438 c 0
 1046 1425.64648438 939.277139363 1323.88647818 903.862345978 1215.10822603 c 2
 645 420 l 2
 579.794468004 219.718052169 529.986085535 109.238764365 485.495213679 56.2166079931 c 0
 431.002393874 -8.72540578095 358.015283013 -69.3539203355 246.233805032 -69.3539203355 c 0
 120.185772789 -69.3539203355 48.530537635 51.0004561431 23.2708046152 139.881814208 c 1
 196.729195385 298.118185792 l 1
 207.089296408 281.370768564 235.447265625 129.353515625 333.766601562 129.353515625 c 0
 390.701171875 129.353515625 430.081457208 196.388452611 503.819335938 422.948242188 c 2
 738.137654022 1142.89177397 l 2
 796.856837606 1323.3065907 937.554876955 1526.17533808 1128.99015524 1586.6926246 c 0
 1167.75876006 1598.94831115 1205.31380059 1604.35392034 1242.76619497 1604.35392034 c 0
 1440.43670658 1604.35392034 1551.38279614 1465.90574452 1551.38279614 1281.09529364 c 0
 1551.38279614 1146.54045676 1468.96184099 1018.33266303 1387.70832596 944.696771377 c 1
 1444.69098871 894.688125775 1491.38279614 820.605823149 1491.38279614 717.095293638 c 0
 1491.38279614 580.417577575 1390.37103242 466.924175621 1303.98812973 407.407945328 c 1
 1391.89548351 342.125154766 1455.38279614 241.689434629 1455.38279614 105.095293638 c 0
 1455.38279614 75.7461430906 1450.95604534 44.8087939636 1439.2654465 10.0597185918 c 0
 1372.6317531 -188.001926111 1174.66725372 -320.768633812 924.519945785 -320.768633812 c 0
 825.166134574 -320.768633812 726.757046925 -297.370220154 646.812482039 -248.173564839 c 1
 797.187517961 -57.8264351607 l 1
 868.212519123 -101.534128183 957.637206865 -121.898130291 1043.68751291 -121.898130291 c 0
 1168.87627572 -121.898130291 1290.0038073 -60 1290.0038073 43.3392108762 c 0
 1290.0038073 215.071761305 1070.87600111 299.547345403 897.215962643 299.646083317 c 1
 1015.11914062 498.353515625 l 17
 1129.27703629 483.815499466 1334.6171875 495.46952766 1334.6171875 630 c 0
 1334.6171875 777 1192 814 1074.23380504 821.646079664 c 1
 1191.76619501 1020.35392034 l 1
 1317 1037 1399 1108.71289062 1399 1214 c 0
EndSplineSet
EndChar

StartChar: uni170C.avar
Encoding: 65538 -1 36
GlifName: uni170C_.avar
Width: 2088
GlyphClass: 2
Flags: HMW
AnchorPoint: "Anchor1" 1166 0 basechar 0
AnchorPoint: "Anchor0" 1040 1386 basechar 0
AnchorPoint: "Anchor-1" 1166 0 basechar 0
AnchorPoint: "Anchor-0" 1040 1386 basechar 0
LayerCount: 2
Back
SplineSet
114 812 m 5
 358 812 l 6
 448.339987322 812 526.846375626 811.971405418 529.026367188 727 c 4
 528.862304688 718.517578125 527.853515625 708.184570312 526 696 c 6
 502 540 l 6
 485.836463082 433.847985398 478.414200413 387.868687841 478.414200413 335.409491375 c 4
 478.414200413 181.185859224 554.617563469 59.750990945 704.174423679 59.750990945 c 4
 753.668963079 59.750990945 804.419589994 75.6734200975 854 104 c 4
 929.865234375 148.669921875 1013.01660156 228.594726562 1103.45410156 343.774414062 c 4
 1161.015625 417.500976562 1225.86425781 513.576171875 1298 632 c 6
 1522 1000 l 6
 1566.63085938 1072.01855469 1608.44433594 1122.24804688 1647.43847656 1150.69042969 c 4
 1696.16813461 1184.54812852 1750.70609222 1200.68062614 1803.15748192 1200.68062614 c 4
 1916.77019145 1200.68062614 2026.35756776 1116.39461951 2026.35756776 994.286333485 c 4
 2026.35756776 858.712028493 1905.95002472 776.091527397 1769.8679225 776.091527397 c 4
 1630 776.091527397 1512 849 1482 909 c 1028
EndSplineSet
Fore
SplineSet
426.750285292 906.100977991 m 2
 533.030670969 906.100977991 623.109216271 894 623.109216271 787.461538261 c 0
 623.109216271 773.689506088 621.656684007 760.489178951 619.283275281 744.886955213 c 0
 605.225399076 653.511118152 572.515178404 468.110836954 572.515178404 394.446072279 c 0
 572.515178404 265.376153103 634.248804684 153.851968936 763.211004583 153.851968936 c 0
 800.209754088 153.851968936 831.730251113 164.968332035 859.476770482 180.650944438 c 0
 924.36654244 219.279128285 986.943028771 290.744329557 1043.11336451 362.254387281 c 0
 1110.99638723 449.242715461 1187.70432134 568.784020621 1262.5218741 690.999992896 c 2
 1448.21001044 999.278856657 l 2
 1518 1115 1610.53851795 1226.39010924 1746.42470987 1274.2098903 c 0
 1788.3006935 1288.94648966 1826.60443174 1294.78160413 1862.19406282 1294.78160413 c 0
 2001.46889881 1294.78160413 2120.45854575 1198.19079014 2120.45854575 1053.32291439 c 0
 2120.45854575 983.993544704 2092.68935482 894.604529344 2008.22748344 810.142657964 c 0
 1931.33837174 733.253546267 1836.23593962 681.990549406 1710.8313416 681.990549406 c 0
 1603.92928239 681.990549406 1513.62291616 717.212859962 1451.85061939 764.237328523 c 1
 1372.6038657 634.046233182 l 2
 1255.43508214 441.69254738 1167.24319703 309.830387636 1028.38284688 170.96999104 c 0
 935.430890501 78.0180035637 801.228610595 -34.3499870459 645.137842775 -34.3499870459 c 0
 468.175820698 -34.3499870459 384.313222422 104.447051835 384.313222422 276.372910471 c 0
 384.313222422 367.444457685 416.85744645 544.027332473 432.716724719 647.113044787 c 0
 434.089687238 656.138572474 434.731952509 663.080715321 434.90122455 667.823280591 c 0
 433.033864805 714.125401526 383.954015776 718.064636527 331.372532039 718.064636527 c 2
 54.9634190962 717.899022009 l 1
 173.036580904 906.100977991 l 1
 426.750285292 906.100977991 l 2
  Spiro
    426.75 906.101 ]
    524.807 899.035 o
    595.871 865.518 o
    623.109 787.462 o
    622.646 773.784 o
    621.328 759.784 o
    619.283 744.887 o
    600.931 629.922 o
    581.5 497.61 o
    572.515 394.446 o
    593.255 274.812 o
    656.54 187.482 o
    763.211 153.852 o
    798.413 157.308 o
    830.44 166.745 o
    859.477 180.651 o
    923.381 228.953 o
    985.019 292.042 o
    1043.11 362.254 o
    1113.47 458.882 o
    1187.55 570.899 o
    1262.52 691 [
    1448.21 999.279 ]
    1526.26 1111.26 o
    1624.33 1207.48 o
    1746.42 1274.21 o
    1787.1 1286.08 o
    1825.71 1292.73 o
    1862.19 1294.78 o
    1990.94 1264.43 o
    2084.52 1180.2 o
    2120.46 1053.32 o
    2110.15 978.312 o
    2074.81 895.237 o
    2008.23 810.143 o
    1924.91 742.802 o
    1826.48 698.097 o
    1710.83 681.991 o
    1610 692.843 o
    1522.61 722.051 o
    1451.85 764.237 v
    1372.6 634.046 ]
    1262.25 459.516 o
    1153.19 309.856 o
    1028.38 170.97 o
    922.516 76.5182 o
    793.076 -1.83513 o
    645.138 -34.35 o
    498.983 7.9213 o
    412.553 119.542 o
    384.313 276.373 o
    393.322 389.929 o
    413.141 525.552 o
    432.717 647.113 o
    433.855 655.432 o
    434.565 662.358 o
    434.901 667.823 o
    418.944 701.405 o
    381.122 715.335 o
    331.373 718.065 [
    54.9634 717.899 v
    173.037 906.101 v
    0 0 z
  EndSpiro
1579.7345763 974.332400581 m 1
 1622.70587489 915.72759981 1727.19737076 870.192505388 1828.9045034 870.192505388 c 0
 1859.89304031 870.192505388 1890.28390852 876.736412925 1909.99999905 891.596415839 c 0
 1923.7086225 901.928595232 1932.25658977 916.281140226 1932.25658977 935.249752581 c 0
 1932.25658977 1031.46908197 1835.18453047 1106.57964815 1744.12090102 1106.57964815 c 0
 1709.49160426 1106.57964815 1671.5448368 1097.88187712 1654.90513966 1081.24217998 c 0
 1645.82616007 1072.16320039 1622.94050287 1044.44337996 1596.17856445 1001.34752398 c 2
 1579.7345763 974.332400581 l 1
  Spiro
    1579.73 974.332 v
    1640.75 921.333 o
    1728.75 884.142 o
    1828.9 870.193 o
    1879 876.768 o
    1917.16 897.857 o
    1932.26 935.25 o
    1903.77 1022.36 o
    1833.29 1083.59 o
    1744.12 1106.58 o
    1709.33 1103.71 o
    1677.71 1095.2 o
    1654.91 1081.24 o
    1641.61 1066.09 o
    1621.26 1039.16 o
    1596.18 1001.35 [
    0 0 z
  EndSpiro
EndSplineSet
EndChar

StartChar: uni170D.avar
Encoding: 65539 -1 37
GlifName: uni170D_.avar
Width: 2096
GlyphClass: 2
Flags: HMW
AnchorPoint: "Anchor1" 880 -93 basechar 0
AnchorPoint: "Anchor0" 1054 1386 basechar 0
AnchorPoint: "Anchor-1" 964 0 basechar 0
AnchorPoint: "Anchor-0" 1054 1386 basechar 0
LayerCount: 2
Back
SplineSet
1578 631 m 4
 1554 515 1498 397 1420 283 c 4
 1346.79988659 176.015218857 1266 93 1178 37 c 1028
486 918 m 5
 454 886 l 6
 386.801757812 818.205078125 340.543945312 763.393554688 315.225585938 721.568359375 c 4
 275.190429688 652.998046875 257.448242188 584.475585938 262 516 c 4
 269.700195312 427.359375 309.1328125 355.033203125 380.296875 299.021484375 c 4
 444.841796875 250.083007812 524.076171875 223.7421875 618 220 c 4
 707.6875 216.799804688 833.54296875 241.62890625 995.567382812 294.486328125 c 6
 997.569335938 295.139648438 l 5
 999.5703125 295.79296875 l 5
 1001.57128906 296.446289062 l 5
 1003.57226562 297.100585938 l 5
 1005.57324219 297.75390625 l 5
 1007.57324219 298.408203125 l 5
 1009.57421875 299.0625 l 5
 1013.18945312 300.245117188 l 6
 1025.34667969 304.217773438 1034.12597656 307.083984375 1039.52929688 308.842773438 c 4
 1214.14160156 365.2109375 1354.96484375 394.262695312 1462 396 c 4
 1647.30371094 398.5390625 1807.98339844 343.985351562 1944.03808594 232.338867188 c 4
 1948.04101562 229.014648438 1951.36132812 226.235351562 1954 224 c 1028
142 1080 m 4
 271.310546875 969.6875 426.37109375 914.9765625 607.181640625 915.868164062 c 4
 611.455078125 915.907226562 615.061523438 915.951171875 618 916 c 4
 720.006835938 918.362304688 860.723632812 947.389648438 1040.14941406 1003.08300781 c 4
 1222.76367188 1059.40722656 1363.37988281 1089.04589844 1462 1092 c 4
 1642.984375 1096.96582031 1799.81640625 1045.70898438 1932.49707031 938.229492188 c 4
 1940.44628906 931.693359375 1947.61425781 925.6171875 1954 920 c 1028
EndSplineSet
Fore
SplineSet
1870.8506087 137.578895924 m 1
 1742.74449715 246.10402128 1588.61319118 301.983809538 1415.30253161 301.983809538 c 0
 1307.29115144 301.983809538 1180.46699244 275.638838975 1005.52463787 219.175665557 c 0
 990.927913258 214.4087663 976.332815175 209.639335022 961.734611032 204.875326648 c 0
 803.094995469 153.122131708 674.069123309 125.619249362 574.985546372 125.619249362 c 0
 351.909020278 125.619249362 167.217543967 255.862638908 167.217543967 477.534871546 c 0
 167.217543967 664.888539529 306.172685509 819.015391703 413.341360082 926.658639918 c 2
 445.341360082 958.658639918 l 1
 526.658639918 877.341360082 l 1
 495.069231024 845.751951188 l 2
 448.914415971 799.162182919 417.502773364 768.230933886 390.76586701 725.14585082 c 0
 369.522931085 688.302004101 355.388134845 646.085909448 355.388134845 596.416100332 c 0
 355.388134845 421.453051565 514.761970563 313.832482762 692.45066997 313.832482762 c 0
 773.823668273 313.832482762 934.870215186 353.270858479 1073.70937489 398.566504114 c 0
 1261.08247971 459.054096514 1405.17083654 490.185568832 1533.34727097 490.185568832 c 0
 1730.22023923 490.185568832 1899.26404688 427.230709075 2037.1493913 310.421104076 c 1
 1870.8506087 137.578895924 l 1
1870.4550424 833.920373731 m 1
 1749.61379879 940.217794275 1596.01107102 998.228523267 1426.83903788 998.228523267 c 0
 1315.74313318 998.228523267 1196.36163627 972.072383843 1004.56760924 912.916823579 c 0
 810.978204851 852.827107406 671.133263103 821.758170462 544.042933553 821.758170462 c 0
 353.397705001 821.758170462 191.915368506 880.063525575 58.7769238483 993.641536272 c 1
 225.223076152 1166.35846373 l 1
 348.632178175 1061.08038011 494.374896022 1009.95671206 661.632241765 1009.95671206 c 0
 767.6017071 1009.95671206 893.167597318 1036.58185409 1075.73121888 1093.24919204 c 0
 1277.1974668 1155.38798205 1412.46507233 1186.42938258 1544.8344154 1186.42938258 c 0
 1738.21286898 1186.42938258 1906.5416727 1121.31603772 2037.5449576 1006.07962627 c 1
 1870.4550424 833.920373731 l 1
1485.47605631 586.313589847 m 1
 1670.52394369 675.686410153 l 1
 1643.40663296 544.619408308 1578.62776426 407.350019506 1488.75398653 275.996036661 c 0
 1444.08816688 210.715223328 1394.76924475 149.727697056 1339.48326608 94.4417183892 c 0
 1289.22642023 44.1848725336 1234.95290897 -0.104986194278 1179.28041558 -35.5329365295 c 1
 1176.71958442 109.53293653 l 1
 1204.8939151 127.462056053 1231.19896314 148.791975115 1258.16598625 175.758998226 c 0
 1287.75412014 205.347132117 1319.2570271 243.250829409 1351.24601347 290.003963339 c 0
 1417.37223574 386.649980494 1464.59336704 485.380591692 1485.47605631 586.313589847 c 1
EndSplineSet
EndChar

StartChar: _ra_tail
Encoding: 65540 -1 38
GlifName: _ra_tail
Width: 2096
GlyphClass: 2
Flags: HMW
LayerCount: 2
Fore
SplineSet
1485.47605631 586.313589847 m 1
 1670.52394369 675.686410153 l 1
 1643.40663296 544.619408308 1578.62776426 407.350019506 1488.75398653 275.996036661 c 0
 1444.08816688 210.715223328 1394.76924475 149.727697056 1339.48326608 94.4417183892 c 0
 1289.22642023 44.1848725336 1234.95290897 -0.104986194278 1179.28041558 -35.5329365295 c 1
 1176.71958442 109.53293653 l 1
 1204.8939151 127.462056053 1231.19896314 148.791975115 1258.16598625 175.758998226 c 0
 1287.75412014 205.347132117 1319.2570271 243.250829409 1351.24601347 290.003963339 c 0
 1417.37223574 386.649980494 1464.59336704 485.380591692 1485.47605631 586.313589847 c 1
EndSplineSet
EndChar

StartChar: uni1714.salt
Encoding: 65541 -1 39
GlifName: uni1714.salt
Width: 0
VWidth: 0
GlyphClass: 4
Flags: HMW
AnchorPoint: "Anchor1" -550 0 mark 0
AnchorPoint: "Anchor-1" -248 0 mark 0
LayerCount: 2
Fore
SplineSet
-782.783203125 -408.458007812 m 257
 -651.96875 -291.78515625 l 257
 -784.904296875 -172.991210938 l 257
 -644.897460938 -32.984375 l 257
 -526.103515625 -165.920898438 l 257
 -406.602539062 -32.27734375 l 257
 -266.595703125 -172.284179688 l 257
 -400.23828125 -291.78515625 l 257
 -269.423828125 -408.458007812 l 257
 -409.430664062 -548.46484375 l 257
 -526.103515625 -417.650390625 l 257
 -642.776367188 -548.46484375 l 257
 -782.783203125 -408.458007812 l 257
EndSplineSet
EndChar

StartChar: pahantig
Encoding: 65542 -1 40
GlifName: pahantig
Width: 568
VWidth: 0
GlyphClass: 2
Flags: HMW
LayerCount: 2
Back
Refer: 22 5907 N 1 0 0 1 420 826 2
Fore
SplineSet
75 613 m 256
 75 735 175 835 297 835 c 256
 419 835 519 735 519 613 c 256
 519 491 419 391 297 391 c 256
 175 391 75 491 75 613 c 256
EndSplineSet
EndChar

StartChar: pahantig_hollow
Encoding: 65543 -1 41
GlifName: pahantig_hollow
Width: 568
VWidth: 0
GlyphClass: 2
Flags: HMW
LayerCount: 2
Back
Refer: 33 -1 N 1 0 0 1 420 754 2
Fore
SplineSet
198 625 m 260
 198 576 238 537 287 537 c 260
 336 537 376 576 376 625 c 260
 376 674 336 714 287 714 c 260
 238 714 198 674 198 625 c 260
75 615 m 256
 75 737 175 837 297 837 c 256
 419 837 519 737 519 615 c 256
 519 493 419 393 297 393 c 256
 175 393 75 493 75 615 c 256
EndSplineSet
EndChar

StartChar: padalawa
Encoding: 65544 -1 42
GlifName: padalawa
Width: 568
VWidth: 0
GlyphClass: 2
Flags: HMW
LayerCount: 2
Back
Refer: 22 5907 N 1 0 0 1 420 606 2
Refer: 22 5907 N 1 0 0 1 420 1008 2
Fore
SplineSet
75 893 m 260
 75 1015 175 1115 297 1115 c 256
 419 1115 519 1015 519 893 c 256
 519 771 419 671 297 671 c 256
 175 671 75 771 75 893 c 260
75 273 m 256
 75 395 175 495 297 495 c 256
 419 495 519 395 519 273 c 256
 519 151 419 51 297 51 c 256
 175 51 75 151 75 273 c 256
EndSplineSet
EndChar

StartChar: padalawa_hollow
Encoding: 65545 -1 43
GlifName: padalawa_hollow
Width: 568
VWidth: 0
GlyphClass: 2
Flags: HMW
LayerCount: 2
Back
Refer: 22 5907 N 1 0 0 1 420 606 2
Refer: 33 -1 N 1 0 0 1 420 934 2
Fore
SplineSet
198 905 m 260
 198 856 238 817 287 817 c 260
 336 817 376 856 376 905 c 260
 376 954 336 994 287 994 c 260
 238 994 198 954 198 905 c 260
75 895 m 256
 75 1017 175 1117 297 1117 c 256
 419 1117 519 1017 519 895 c 256
 519 773 419 673 297 673 c 256
 175 673 75 773 75 895 c 256
75 273 m 256
 75 395 175 495 297 495 c 256
 419 495 519 395 519 273 c 256
 519 151 419 51 297 51 c 256
 175 51 75 151 75 273 c 256
EndSplineSet
EndChar

StartChar: padalawa_hollow2
Encoding: 65546 -1 44
GlifName: padalawa_hollow2
Width: 568
VWidth: 0
GlyphClass: 2
Flags: HMW
LayerCount: 2
Back
Refer: 22 5907 N 1 0 0 1 420 1008 2
Refer: 33 -1 N 1 0 0 1 420 534 2
Fore
SplineSet
198 285 m 260
 198 236 238 197 287 197 c 260
 336 197 376 236 376 285 c 260
 376 334 336 374 287 374 c 260
 238 374 198 334 198 285 c 260
75 275 m 256
 75 397 175 497 297 497 c 256
 419 497 519 397 519 275 c 256
 519 153 419 53 297 53 c 256
 175 53 75 153 75 275 c 256
75 893 m 256
 75 1015 175 1115 297 1115 c 256
 419 1115 519 1015 519 893 c 256
 519 771 419 671 297 671 c 256
 175 671 75 771 75 893 c 256
EndSplineSet
EndChar

StartChar: padalawa_hollow_hollow
Encoding: 65547 -1 45
GlifName: padalawa_hollow_hollow
Width: 568
VWidth: 0
GlyphClass: 2
Flags: HMW
LayerCount: 2
Back
Refer: 33 -1 N 1 0 0 1 420 534 2
Refer: 33 -1 N 1 0 0 1 420 934 2
Fore
SplineSet
198 905 m 256
 198 856 238 817 287 817 c 256
 336 817 376 856 376 905 c 256
 376 954 336 994 287 994 c 256
 238 994 198 954 198 905 c 256
75 895 m 256
 75 1017 175 1117 297 1117 c 256
 419 1117 519 1017 519 895 c 256
 519 773 419 673 297 673 c 256
 175 673 75 773 75 895 c 256
198 285 m 260
 198 236 238 197 287 197 c 260
 336 197 376 236 376 285 c 260
 376 334 336 374 287 374 c 260
 238 374 198 334 198 285 c 260
75 275 m 256
 75 397 175 497 297 497 c 256
 419 497 519 397 519 275 c 256
 519 153 419 53 297 53 c 256
 175 53 75 153 75 275 c 256
EndSplineSet
EndChar
